<svg width="572" height="368" viewBox="0 0 572 368" fill="none" xmlns="http://www.w3.org/2000/svg">
<mask id="mask0_1_3" style="mask-type:luminance" maskUnits="userSpaceOnUse" x="-28" y="0" width="600" height="400">
<path fill-rule="evenodd" clip-rule="evenodd" d="M-28 -3.57628e-05V400H572V-3.57628e-05H-28Z" fill="white"/>
</mask>
<g mask="url(#mask0_1_3)">
<path d="M51.8174 359.802C51.8174 359.802 -11.0683 298.764 28.9392 226.954C68.9466 155.141 122.68 191.255 120.08 107.673C117.479 24.09 243.656 16.909 283.818 41.1446C323.98 65.3802 323.74 94.5688 406.65 84.9114C489.562 75.2538 505.402 155.76 483.832 196.789C453.226 255.004 568.772 245.402 495.966 359.802H51.8174Z" fill="#EBF2F9"/>
</g>
<mask id="mask1_1_3" style="mask-type:luminance" maskUnits="userSpaceOnUse" x="-28" y="0" width="600" height="400">
<path fill-rule="evenodd" clip-rule="evenodd" d="M-28 -3.57628e-05V400H572V-3.57628e-05H-28Z" fill="white"/>
</mask>
<g mask="url(#mask1_1_3)">
<path d="M327.974 216.176C327.974 216.176 341.336 159.542 386.412 153.315C386.412 153.315 386.704 153.28 387.2 153.28C389.418 153.28 395.716 153.999 398.104 161.896C401.024 171.553 383.586 171.623 372.808 175.507C362.028 179.392 336.9 195.86 327.974 216.176Z" fill="#D8E4FB"/>
</g>
<mask id="mask2_1_3" style="mask-type:luminance" maskUnits="userSpaceOnUse" x="-28" y="0" width="600" height="400">
<path fill-rule="evenodd" clip-rule="evenodd" d="M-28 -3.57628e-05V400H572V-3.57628e-05H-28Z" fill="white"/>
</mask>
<g mask="url(#mask2_1_3)">
<path d="M326.95 205.578C326.95 205.578 322.264 158.666 355.158 142.017C355.158 142.017 356.68 141.276 358.792 141.276C361.026 141.276 363.92 142.104 366.376 145.51C371.158 152.14 357.818 156.788 350.582 162.605C343.348 168.421 328.434 187.66 326.95 205.578Z" fill="#D8E4FB"/>
</g>
<mask id="mask3_1_3" style="mask-type:luminance" maskUnits="userSpaceOnUse" x="-28" y="0" width="600" height="400">
<path fill-rule="evenodd" clip-rule="evenodd" d="M-28 -3.57628e-05V400H572V-3.57628e-05H-28Z" fill="white"/>
</mask>
<g mask="url(#mask3_1_3)">
<path d="M526.534 360.398H9.57018C9.24158 360.398 8.97278 360.128 8.97278 359.8V359.572C8.97278 359.244 9.24158 358.974 9.57018 358.974H526.534C526.862 358.974 527.132 359.244 527.132 359.572V359.8C527.132 360.128 526.862 360.398 526.534 360.398Z" fill="#2D3452"/>
</g>
<mask id="mask4_1_3" style="mask-type:luminance" maskUnits="userSpaceOnUse" x="-28" y="0" width="600" height="400">
<path fill-rule="evenodd" clip-rule="evenodd" d="M-28 -3.57628e-05V400H572V-3.57628e-05H-28Z" fill="white"/>
</mask>
<g mask="url(#mask4_1_3)">
<path d="M83.739 317.208C76.7796 301.35 102.023 287.726 102.023 287.726C102.023 287.726 135.288 298.492 140.064 295.54C144.84 292.586 113.421 280.78 113.421 280.78C121.173 273.196 150.898 266.244 150.898 266.244C150.898 266.244 170.949 293.914 174.852 289.876C178.754 285.84 155.848 266.282 155.848 266.282C165.949 262.17 181.188 265.546 181.188 265.546C203.132 273.358 191.966 301.132 191.966 301.132C191.966 301.132 199.122 310.572 213.336 316.56C213.336 316.56 216.194 317.478 220.174 319.746L217.956 321.532C217.296 321.084 216.634 320.67 215.968 320.296L215.956 320.288L215.926 320.272C215.498 320.052 214.888 319.74 214.136 319.366L214.134 319.364L214.13 319.362C212.384 318.582 211.136 317.97 210.276 317.496L210.27 317.492C204.884 314.962 197.59 311.892 194.722 312.326C194.722 312.326 194.69 311.784 194.378 310.926C194.488 311.374 194.602 311.838 194.722 312.326C197.478 323.52 179.586 340.168 167.262 346.516C154.938 352.866 157.146 346.17 158.941 336.74C160.736 327.312 173.698 318.976 175.694 314.238C177.69 309.5 171.008 311.752 164.394 317.974C157.78 324.196 159.934 334.086 149.417 344.346C138.9 354.606 112.965 340.17 112.965 340.17C122.796 336.276 133.404 320.578 131.762 317.43C130.12 314.28 109.456 331.372 105.546 333.18C101.636 334.986 90.6986 333.066 83.739 317.208Z" fill="#CDDFFB"/>
</g>
<mask id="mask5_1_3" style="mask-type:luminance" maskUnits="userSpaceOnUse" x="-28" y="0" width="600" height="400">
<path fill-rule="evenodd" clip-rule="evenodd" d="M-28 -3.57628e-05V400H572V-3.57628e-05H-28Z" fill="white"/>
</mask>
<g mask="url(#mask5_1_3)">
<path d="M401.562 336.274C411.716 324.294 393.304 305.92 393.304 305.92C393.304 305.92 361.61 306.666 358.224 302.864C354.838 299.062 385.198 296.934 385.198 296.934C380.424 288.336 356.392 274.6 356.392 274.6C356.392 274.6 331.804 293.456 329.458 288.938C327.112 284.42 352.08 273.352 352.08 273.352C344.366 267.164 330.25 266.154 330.25 266.154C309.158 267.264 311.672 294.29 311.672 294.29C311.672 294.29 303.01 300.64 289.108 302.166H289.106C289.106 302.166 286.386 302.222 282.34 303.162L283.806 305.29C284.494 305.07 285.178 304.882 285.854 304.73L285.866 304.726L285.896 304.72C286.324 304.64 286.936 304.526 287.686 304.396L287.688 304.394H287.692C289.412 304.168 290.654 303.96 291.524 303.77L291.53 303.768C296.864 302.964 304 302.184 306.378 303.304C306.378 303.304 306.548 302.84 307.04 302.176C306.83 302.536 306.61 302.91 306.378 303.304C301.086 312.318 312.326 331.416 321.392 340.124C330.458 348.832 330.274 342.44 331.154 333.782C332.034 325.124 322.928 314.526 322.42 309.89C321.912 305.256 327.136 308.942 331.272 316.062C335.41 323.18 330.978 331.218 337.462 342.856C343.946 354.494 370.22 348.664 370.22 348.664C362.686 342.734 357.53 326.348 359.772 324.036C362.014 321.724 375.548 341.926 378.478 344.508C381.408 347.092 391.41 348.252 401.562 336.274Z" fill="#CDDFFB"/>
</g>
<mask id="mask6_1_3" style="mask-type:luminance" maskUnits="userSpaceOnUse" x="-28" y="0" width="600" height="400">
<path fill-rule="evenodd" clip-rule="evenodd" d="M-28 -3.57628e-05V400H572V-3.57628e-05H-28Z" fill="white"/>
</mask>
<g mask="url(#mask6_1_3)">
<path d="M240.092 237.056L236.856 236.15C236.834 235.208 236.778 234.288 236.68 233.392L236.678 233.374L236.674 233.336C236.592 232.774 236.472 231.972 236.318 230.994V230.99L236.316 230.986C235.87 228.772 235.602 227.156 235.468 226.004V225.994C234.206 219.086 232.154 209.972 229.77 207.514C226.332 211.518 219.978 213.1 212.638 213.1C201.048 213.1 187.002 209.158 178.094 204.572C163.543 197.085 171.491 194.614 181.78 189.875C184.532 188.608 187.756 188.161 191.114 188.161C195.134 188.161 199.346 188.801 203.182 189.441C207.016 190.081 210.47 190.72 212.966 190.72C213.692 190.72 214.336 190.667 214.888 190.543C220.808 189.213 214.064 184.337 203.55 182.248C202.42 182.023 201.318 181.925 200.23 181.925C196.478 181.925 192.9 183.092 188.902 184.259C184.906 185.426 180.492 186.593 175.074 186.593C172.876 186.593 170.512 186.401 167.944 185.939C150.876 182.868 146.963 148.053 146.963 148.053C152.685 151.752 161.947 153.261 169.487 153.261C175.758 153.262 180.838 152.217 181.7 150.521C183.6 146.784 153.011 138.648 148.593 136.131C144.176 133.614 138.523 121.787 148.987 104.228C152.865 97.7222 159.481 95.674 166.272 95.674C177.808 95.674 189.85 101.582 189.85 101.582C189.85 101.582 202.314 140.925 208.424 143.489C208.622 143.572 208.804 143.613 208.968 143.613C213.888 143.613 204.338 107.772 204.338 107.772C216.94 110.019 244 133.814 244 133.814C244 133.814 231.162 172.05 237.716 173.031C237.806 173.044 237.896 173.051 237.984 173.051C244.356 173.051 247.356 138.595 247.356 138.595C258.234 145.481 265.438 162.437 265.438 162.437C272.976 188.877 238.636 197.191 238.636 197.191C238.636 197.191 234.474 210.538 238.464 228.302C238.464 228.302 239.542 231.678 240.092 237.056ZM230.88 206.224C230.526 206.636 230.158 207.064 229.77 207.514C229.77 207.514 230.27 207.11 230.88 206.224Z" fill="#DBE8FB"/>
</g>
<mask id="mask7_1_3" style="mask-type:luminance" maskUnits="userSpaceOnUse" x="-28" y="0" width="600" height="400">
<path fill-rule="evenodd" clip-rule="evenodd" d="M-28 -3.57628e-05V400H572V-3.57628e-05H-28Z" fill="white"/>
</mask>
<g mask="url(#mask7_1_3)">
<path d="M280.674 121.689H267.992L266.196 78.3578H282.47L280.674 121.689ZM265.826 136.365C265.826 135.231 266.028 134.182 266.434 133.219C266.838 132.257 267.412 131.423 268.152 130.718C268.892 130.013 269.78 129.463 270.82 129.067C271.858 128.672 273.03 128.474 274.334 128.474C275.636 128.474 276.818 128.672 277.874 129.067C278.93 129.463 279.828 130.013 280.568 130.718C281.308 131.423 281.88 132.257 282.286 133.219C282.69 134.182 282.894 135.231 282.894 136.365C282.894 137.5 282.69 138.54 282.286 139.486C281.88 140.432 281.308 141.257 280.568 141.961C279.828 142.666 278.93 143.217 277.874 143.612C276.818 144.006 275.636 144.205 274.334 144.205C273.03 144.205 271.858 144.006 270.82 143.612C269.78 143.217 268.892 142.666 268.152 141.961C267.412 141.257 266.838 140.432 266.434 139.486C266.028 138.54 265.826 137.5 265.826 136.365Z" fill="#F68248"/>
</g>
<mask id="mask8_1_3" style="mask-type:luminance" maskUnits="userSpaceOnUse" x="-28" y="0" width="600" height="400">
<path fill-rule="evenodd" clip-rule="evenodd" d="M-28 -3.57628e-05V400H572V-3.57628e-05H-28Z" fill="white"/>
</mask>
<g mask="url(#mask8_1_3)">
<path d="M238.932 82.7426H229.198L227.82 49.4863H240.31L238.932 82.7426ZM227.536 94.0066C227.536 93.1358 227.69 92.331 228.002 91.5918C228.312 90.8534 228.752 90.2134 229.32 89.6722C229.888 89.1316 230.57 88.7092 231.368 88.4054C232.166 88.1024 233.064 87.9502 234.064 87.9502C235.064 87.9502 235.97 88.1024 236.782 88.4054C237.594 88.7092 238.282 89.1316 238.85 89.6722C239.418 90.2134 239.858 90.8534 240.168 91.5918C240.478 92.331 240.634 93.1358 240.634 94.0066C240.634 94.8774 240.478 95.676 240.168 96.4014C239.858 97.1276 239.418 97.7608 238.85 98.3014C238.282 98.8426 237.594 99.265 236.782 99.5683C235.97 99.871 235.064 100.023 234.064 100.023C233.064 100.023 232.166 99.871 231.368 99.5683C230.57 99.265 229.888 98.8426 229.32 98.3014C228.752 97.7608 228.312 97.1276 228.002 96.4014C227.69 95.676 227.536 94.8774 227.536 94.0066Z" fill="#AEC3FF"/>
</g>
<mask id="mask9_1_3" style="mask-type:luminance" maskUnits="userSpaceOnUse" x="-28" y="0" width="600" height="400">
<path fill-rule="evenodd" clip-rule="evenodd" d="M-28 -3.57628e-05V400H572V-3.57628e-05H-28Z" fill="white"/>
</mask>
<g mask="url(#mask9_1_3)">
<path d="M428.006 138.934H418.274L416.894 105.678H429.384L428.006 138.934ZM416.61 150.198C416.61 149.328 416.766 148.523 417.076 147.784C417.388 147.045 417.826 146.405 418.394 145.864C418.962 145.323 419.644 144.901 420.442 144.597C421.24 144.294 422.14 144.142 423.14 144.142C424.14 144.142 425.046 144.294 425.856 144.597C426.668 144.901 427.358 145.323 427.926 145.864C428.492 146.405 428.932 147.045 429.242 147.784C429.554 148.523 429.71 149.328 429.71 150.198C429.71 151.069 429.554 151.868 429.242 152.593C428.932 153.319 428.492 153.953 427.926 154.493C427.358 155.034 426.668 155.457 425.856 155.76C425.046 156.063 424.14 156.215 423.14 156.215C422.14 156.215 421.24 156.063 420.442 155.76C419.644 155.457 418.962 155.034 418.394 154.493C417.826 153.953 417.388 153.319 417.076 152.593C416.766 151.868 416.61 151.069 416.61 150.198Z" fill="#AEC3FF"/>
</g>
<mask id="mask10_1_3" style="mask-type:luminance" maskUnits="userSpaceOnUse" x="-28" y="0" width="600" height="400">
<path fill-rule="evenodd" clip-rule="evenodd" d="M-28 -3.57628e-05V400H572V-3.57628e-05H-28Z" fill="white"/>
</mask>
<g mask="url(#mask10_1_3)">
<path d="M395.202 234.83C393.168 238.604 390.634 242.416 388.036 245.516V245.518C385.316 248.766 382.532 251.234 380.182 252.07L380.164 252.076C380.04 252.118 379.92 252.158 379.798 252.19L379.78 252.194L379.778 252.196C379.302 252.332 378.846 252.392 378.414 252.372C370.702 252.026 362.574 235.482 362.574 235.482C362.574 235.482 362.786 233.522 364.286 232.136C365.594 230.928 366.6 230.612 366.6 230.612C366.6 230.612 374.906 239.142 376.936 239.756C378.212 240.14 379.89 234.184 382.294 226.704C384.7 219.224 393.146 217.38 393.146 217.38C393.146 217.38 401.694 222.79 395.202 234.83Z" fill="#AEC3FF"/>
</g>
<mask id="mask11_1_3" style="mask-type:luminance" maskUnits="userSpaceOnUse" x="-28" y="0" width="600" height="400">
<path fill-rule="evenodd" clip-rule="evenodd" d="M-28 -3.57628e-05V400H572V-3.57628e-05H-28Z" fill="white"/>
</mask>
<g mask="url(#mask11_1_3)">
<path d="M388.036 245.516V245.518C385.316 248.766 382.532 251.234 380.182 252.07L380.164 252.076L379.798 252.19L379.778 252.196L379.78 252.194C379.866 252.138 382.38 250.834 382.774 248.412C383.178 245.94 380.56 243.916 387.138 240.09C390.97 237.86 388.036 245.516 388.036 245.516Z" fill="#93AFED"/>
</g>
<mask id="mask12_1_3" style="mask-type:luminance" maskUnits="userSpaceOnUse" x="-28" y="0" width="600" height="400">
<path fill-rule="evenodd" clip-rule="evenodd" d="M-28 -3.57628e-05V400H572V-3.57628e-05H-28Z" fill="white"/>
</mask>
<g mask="url(#mask12_1_3)">
<path d="M382.016 358.974H400.09C401.384 358.096 399.74 349.51 399.74 349.51C399.74 349.51 394.808 347.638 393.956 351.444C393.1 355.248 387.672 356.458 384.8 356.922C382.834 357.242 382.212 358.322 382.016 358.974Z" fill="#233F6D"/>
</g>
<mask id="mask13_1_3" style="mask-type:luminance" maskUnits="userSpaceOnUse" x="-28" y="0" width="600" height="400">
<path fill-rule="evenodd" clip-rule="evenodd" d="M-28 -3.57628e-05V400H572V-3.57628e-05H-28Z" fill="white"/>
</mask>
<g mask="url(#mask13_1_3)">
<path d="M409.578 269.978C409.578 269.978 409.008 280.522 408.294 292.74C407.782 301.5 407.198 311.122 406.696 318.328C406.63 319.284 406.564 320.198 406.5 321.062C406.482 321.33 406.462 321.596 406.442 321.862C405.148 338.02 400.82 352.176 400.82 352.176C395.74 353.246 393.444 351.288 393.444 351.288C393.444 351.288 389.942 310.252 388.646 293.702C387.692 281.52 386.878 263.782 386.878 263.782L409.578 269.978Z" fill="#FF9E54"/>
</g>
<mask id="mask14_1_3" style="mask-type:luminance" maskUnits="userSpaceOnUse" x="-28" y="0" width="600" height="400">
<path fill-rule="evenodd" clip-rule="evenodd" d="M-28 -3.57628e-05V400H572V-3.57628e-05H-28Z" fill="white"/>
</mask>
<g mask="url(#mask14_1_3)">
<path d="M408.294 292.74C407.782 301.5 407.198 311.122 406.696 318.328C403.374 310.492 396.586 279.948 396.586 279.948L408.294 292.74Z" fill="#ED7C2A"/>
</g>
<mask id="mask15_1_3" style="mask-type:luminance" maskUnits="userSpaceOnUse" x="-28" y="0" width="600" height="400">
<path fill-rule="evenodd" clip-rule="evenodd" d="M-28 -3.57628e-05V400H572V-3.57628e-05H-28Z" fill="white"/>
</mask>
<g mask="url(#mask15_1_3)">
<path d="M408.82 358.974H426.896C428.19 358.096 426.546 349.51 426.546 349.51C426.546 349.51 421.612 347.638 420.76 351.444C419.906 355.248 414.478 356.458 411.604 356.922C409.638 357.242 409.018 358.322 408.82 358.974Z" fill="#233F6D"/>
</g>
<mask id="mask16_1_3" style="mask-type:luminance" maskUnits="userSpaceOnUse" x="-28" y="0" width="600" height="400">
<path fill-rule="evenodd" clip-rule="evenodd" d="M-28 -3.57628e-05V400H572V-3.57628e-05H-28Z" fill="white"/>
</mask>
<g mask="url(#mask16_1_3)">
<path d="M391.788 267.882C391.788 267.882 404.694 300.01 408.82 312.188C411.76 320.862 420.048 351.294 420.048 351.294C420.048 351.294 423.654 352.392 426.682 350.272C426.682 350.272 429.766 319.18 423.538 310.414C420.232 305.762 422.716 262.062 409.316 261.688C395.916 261.314 391.788 267.882 391.788 267.882Z" fill="#FF9E54"/>
</g>
<mask id="mask17_1_3" style="mask-type:luminance" maskUnits="userSpaceOnUse" x="-28" y="0" width="600" height="400">
<path fill-rule="evenodd" clip-rule="evenodd" d="M-28 -3.57628e-05V400H572V-3.57628e-05H-28Z" fill="white"/>
</mask>
<g mask="url(#mask17_1_3)">
<path d="M418.216 257.548C418.162 262.116 418.112 265.47 418.124 266.318C418.16 269.082 416.392 269.706 414.57 270.128C414.57 270.128 412.888 270.49 410.764 270.85C408.684 271.198 406.174 271.542 404.402 271.53C395.34 271.458 387.756 268.79 387.756 268.79C386.05 268.79 385.274 266.154 384.994 262.47C384.804 259.978 385.574 235.12 385.67 228.914C385.736 224.462 388.18 220.348 388.864 219.746C395.192 214.15 413.866 214.856 417.226 218.716C418.058 219.67 418.3 228.872 418.328 238.954C418.346 245.444 418.28 252.296 418.216 257.548Z" fill="#AEC3FF"/>
</g>
<mask id="mask18_1_3" style="mask-type:luminance" maskUnits="userSpaceOnUse" x="-28" y="0" width="600" height="400">
<path fill-rule="evenodd" clip-rule="evenodd" d="M-28 -3.57628e-05V400H572V-3.57628e-05H-28Z" fill="white"/>
</mask>
<g mask="url(#mask18_1_3)">
<path d="M407.004 216.5C404.62 219.084 396.612 218.7 396.85 216.446C396.882 216.168 396.934 214.518 396.962 214.262C396.982 214.056 397.002 213.854 397.018 213.666C397.072 213.11 397.116 212.618 397.152 212.194C397.26 210.958 397.294 210.288 397.294 210.288H397.302C397.53 210.222 402.68 208.76 405.24 208.154C406.1 207.952 406.67 207.844 406.66 207.92C405.874 213.672 407.786 215.652 407.004 216.5Z" fill="#FFB17C"/>
</g>
<mask id="mask19_1_3" style="mask-type:luminance" maskUnits="userSpaceOnUse" x="-28" y="0" width="600" height="400">
<path fill-rule="evenodd" clip-rule="evenodd" d="M-28 -3.57628e-05V400H572V-3.57628e-05H-28Z" fill="white"/>
</mask>
<g mask="url(#mask19_1_3)">
<path d="M405.512 209.852C405.512 209.852 403.362 212.036 397.152 212.194C397.26 210.958 397.294 210.288 397.294 210.288H397.302C397.53 210.222 402.68 208.76 405.24 208.154C405.692 208.34 405.094 209.542 405.512 209.852Z" fill="#ED975D"/>
</g>
<mask id="mask20_1_3" style="mask-type:luminance" maskUnits="userSpaceOnUse" x="-28" y="0" width="600" height="400">
<path fill-rule="evenodd" clip-rule="evenodd" d="M-28 -3.57628e-05V400H572V-3.57628e-05H-28Z" fill="white"/>
</mask>
<g mask="url(#mask20_1_3)">
<path d="M395.72 209.982C395.72 209.982 397.292 210.546 399.296 210.814C402.226 211.21 406.082 210.978 407.292 207.43C409.332 201.462 411.936 197.883 405.934 195.445C402.722 194.14 400.666 194.071 399.27 194.569C398.058 194.999 397.342 195.858 396.802 196.707C395.636 198.534 393.292 208.936 395.72 209.982Z" fill="#FFB17C"/>
</g>
<mask id="mask21_1_3" style="mask-type:luminance" maskUnits="userSpaceOnUse" x="-28" y="0" width="600" height="400">
<path fill-rule="evenodd" clip-rule="evenodd" d="M-28 -3.57628e-05V400H572V-3.57628e-05H-28Z" fill="white"/>
</mask>
<g mask="url(#mask21_1_3)">
<path d="M397.254 192.087C395.11 193.495 395.81 196.795 398.336 197.239C399.85 197.505 401.12 197.558 401.854 197.885C403.346 198.548 404.63 199.252 404.276 201.566C404.158 202.354 403.774 203.314 405.8 202.838C406.132 202.76 406.372 202.782 406.536 202.882C407.376 203.38 406.302 205.798 405.978 206.322C405.978 206.322 405.512 208.054 406.548 208.896C406.672 208.998 408.706 209.886 413.606 202.388C414.376 201.212 415.11 198.559 413.922 196.007C412.734 193.454 409.42 190.225 403.178 190.225C401.552 190.225 399.11 190.868 397.254 192.087Z" fill="#233862"/>
</g>
<mask id="mask22_1_3" style="mask-type:luminance" maskUnits="userSpaceOnUse" x="-28" y="0" width="600" height="400">
<path fill-rule="evenodd" clip-rule="evenodd" d="M-28 -3.57628e-05V400H572V-3.57628e-05H-28Z" fill="white"/>
</mask>
<g mask="url(#mask22_1_3)">
<path d="M418.216 257.548C417.304 261.786 417.536 261.83 416.138 260.718C410.438 256.188 412.104 253.814 413.37 249.888C414.636 245.962 410.192 239.822 413.37 237.204C416.48 234.646 418.25 238.77 418.328 238.954C418.346 245.444 418.28 252.296 418.216 257.548Z" fill="#93AFED"/>
</g>
<mask id="mask23_1_3" style="mask-type:luminance" maskUnits="userSpaceOnUse" x="-28" y="0" width="600" height="400">
<path fill-rule="evenodd" clip-rule="evenodd" d="M-28 -3.57628e-05V400H572V-3.57628e-05H-28Z" fill="white"/>
</mask>
<g mask="url(#mask23_1_3)">
<path d="M418.076 257.002C418.076 257.002 415.928 260.516 414.52 260.392C413.112 260.268 411.21 259.742 410.114 260.79C409.016 261.836 407.248 264.538 407.742 265.258C408.236 265.976 410.224 265.34 411.65 264.552C413.08 263.764 415.328 264.94 416.526 264.044C417.724 263.15 420.594 259.598 420.594 259.598L418.076 257.002Z" fill="#FFB17C"/>
</g>
<mask id="mask24_1_3" style="mask-type:luminance" maskUnits="userSpaceOnUse" x="-28" y="0" width="600" height="400">
<path fill-rule="evenodd" clip-rule="evenodd" d="M-28 -3.57628e-05V400H572V-3.57628e-05H-28Z" fill="white"/>
</mask>
<g mask="url(#mask24_1_3)">
<path d="M417.226 218.716C417.226 218.716 435.056 235.492 432.742 246.654C431.686 251.74 428.412 256.03 419.688 262.976C419.688 262.976 415.56 260.124 414.654 257.808C414.654 257.808 422.574 246.654 422.268 244.754C421.892 242.43 416.486 236.6 414.548 235.694C412.608 234.788 412.786 220.662 417.226 218.716Z" fill="#AEC3FF"/>
</g>
<mask id="mask25_1_3" style="mask-type:luminance" maskUnits="userSpaceOnUse" x="-28" y="0" width="600" height="400">
<path fill-rule="evenodd" clip-rule="evenodd" d="M-28 -3.57628e-05V400H572V-3.57628e-05H-28Z" fill="white"/>
</mask>
<g mask="url(#mask25_1_3)">
<path d="M414.52 260.392C414.52 260.392 412.64 259.57 412.036 259.218C411.432 258.866 411.566 259.436 411.752 259.72C411.936 260.006 412.44 260.644 413.178 260.71C413.916 260.778 414.52 260.392 414.52 260.392Z" fill="#FFB17C"/>
</g>
<mask id="mask26_1_3" style="mask-type:luminance" maskUnits="userSpaceOnUse" x="-28" y="0" width="600" height="400">
<path fill-rule="evenodd" clip-rule="evenodd" d="M-28 -3.57628e-05V400H572V-3.57628e-05H-28Z" fill="white"/>
</mask>
<g mask="url(#mask26_1_3)">
<path d="M101.001 223.934C100.356 222.69 115.065 218.214 115.298 230.484C115.298 230.484 142.851 229.806 129.695 214.448C125.14 209.132 125.609 204.736 125.746 200.644C125.884 196.551 122.909 184.657 112.71 185.855C112.71 185.855 110.039 184.768 106.706 186.497C99.126 190.43 82.1458 228.458 101.001 223.934Z" fill="#153460"/>
</g>
<mask id="mask27_1_3" style="mask-type:luminance" maskUnits="userSpaceOnUse" x="-28" y="0" width="600" height="400">
<path fill-rule="evenodd" clip-rule="evenodd" d="M-28 -3.57628e-05V400H572V-3.57628e-05H-28Z" fill="white"/>
</mask>
<g mask="url(#mask27_1_3)">
<path d="M146.047 235.196C146.047 235.196 147.84 232.466 149.286 232.412C150.731 232.358 153.408 231.61 153.194 232.144C152.98 232.68 151.32 232.734 151.16 233.054C150.999 233.376 153.622 233.858 154.372 233.912C155.121 233.964 156.888 233.912 156.834 234.286C156.781 234.66 153.65 236.214 151.441 236C149.232 235.784 146.502 236.642 146.502 236.642L146.047 235.196Z" fill="#FFB17C"/>
</g>
<mask id="mask28_1_3" style="mask-type:luminance" maskUnits="userSpaceOnUse" x="-28" y="0" width="600" height="400">
<path fill-rule="evenodd" clip-rule="evenodd" d="M-28 -3.57628e-05V400H572V-3.57628e-05H-28Z" fill="white"/>
</mask>
<g mask="url(#mask28_1_3)">
<path d="M120.109 236.08C120.109 236.08 121.084 238.01 122.852 240.228C124.983 242.898 128.269 245.98 132.395 246.59C134.366 246.88 136.293 246.456 138.065 245.67L138.071 245.668C143.082 243.444 146.85 238.328 146.85 238.328C147.733 235.918 146.288 234.286 146.288 234.286C146.288 234.286 136.169 236.562 135.206 236.08C134.242 235.598 128.318 222.454 127.25 220.264C124.982 215.612 121.382 214.276 121.382 214.276L120.109 236.08Z" fill="#AEC3FF"/>
</g>
<mask id="mask29_1_3" style="mask-type:luminance" maskUnits="userSpaceOnUse" x="-28" y="0" width="600" height="400">
<path fill-rule="evenodd" clip-rule="evenodd" d="M-28 -3.57628e-05V400H572V-3.57628e-05H-28Z" fill="white"/>
</mask>
<g mask="url(#mask29_1_3)">
<path d="M122.852 240.228C124.983 242.898 128.269 245.98 132.395 246.59C134.366 246.88 136.293 246.456 138.065 245.67C137.869 245.694 132.864 246.314 130.869 242.744C128.835 239.104 126.634 233.322 123.612 235.25C122.307 236.082 122.365 238.148 122.852 240.228Z" fill="#93AFED"/>
</g>
<mask id="mask30_1_3" style="mask-type:luminance" maskUnits="userSpaceOnUse" x="-28" y="0" width="600" height="400">
<path fill-rule="evenodd" clip-rule="evenodd" d="M-28 -3.57628e-05V400H572V-3.57628e-05H-28Z" fill="white"/>
</mask>
<g mask="url(#mask30_1_3)">
<path d="M82.3592 345.3C82.3592 345.3 79.2718 348.118 79.8742 350.12C80.4766 352.122 83.2628 353.458 83.6394 355.904C84.016 358.352 85.522 359.686 86.8774 359.686C88.233 359.686 93.3398 359.686 93.3398 359.686C93.3398 359.686 94.3376 357.964 91.9278 357.444C89.518 356.926 88.6094 354.05 88.76 351.382C88.9106 348.712 88.5342 345.152 88.5342 345.152L83.4134 343.966L82.3592 345.3Z" fill="#1C3356"/>
</g>
<mask id="mask31_1_3" style="mask-type:luminance" maskUnits="userSpaceOnUse" x="-28" y="0" width="600" height="400">
<path fill-rule="evenodd" clip-rule="evenodd" d="M-28 -3.57628e-05V400H572V-3.57628e-05H-28Z" fill="white"/>
</mask>
<g mask="url(#mask31_1_3)">
<path d="M108.491 346.498C108.491 346.498 107.381 358.434 108.736 359.1L126.083 359.066C126.083 359.066 126.083 357.064 123.297 356.618C120.511 356.174 115.616 354.542 114.788 350.908C113.959 347.276 108.491 346.498 108.491 346.498Z" fill="#1C3356"/>
</g>
<mask id="mask32_1_3" style="mask-type:luminance" maskUnits="userSpaceOnUse" x="-28" y="0" width="600" height="400">
<path fill-rule="evenodd" clip-rule="evenodd" d="M-28 -3.57628e-05V400H572V-3.57628e-05H-28Z" fill="white"/>
</mask>
<g mask="url(#mask32_1_3)">
<path d="M95.1472 228.028C95.1472 228.028 94.8886 231.672 95.1472 236.046C95.3192 238.946 98.2516 242.828 98.6676 243.788C99.7116 246.198 100.889 246.59 100.889 246.59L109.997 248.822L113.199 249.606L123.298 246.59C123.298 246.59 127.898 233.75 126.051 226.524C124.204 219.296 121.382 214.276 121.382 214.276C121.382 214.276 114.536 211.576 102.411 213.592L95.1472 228.028Z" fill="#AEC3FF"/>
</g>
<mask id="mask33_1_3" style="mask-type:luminance" maskUnits="userSpaceOnUse" x="-28" y="0" width="600" height="400">
<path fill-rule="evenodd" clip-rule="evenodd" d="M-28 -3.57628e-05V400H572V-3.57628e-05H-28Z" fill="white"/>
</mask>
<g mask="url(#mask33_1_3)">
<path d="M97.8132 237.23C97.985 240.128 98.2516 242.828 98.6676 243.788C99.7116 246.198 100.889 246.59 100.889 246.59L109.997 248.822L113.953 247.66C113.953 247.66 100.747 245.658 102.211 234.296L97.8132 237.23Z" fill="#F2CCAA"/>
</g>
<mask id="mask34_1_3" style="mask-type:luminance" maskUnits="userSpaceOnUse" x="-28" y="0" width="600" height="400">
<path fill-rule="evenodd" clip-rule="evenodd" d="M-28 -3.57628e-05V400H572V-3.57628e-05H-28Z" fill="white"/>
</mask>
<g mask="url(#mask34_1_3)">
<path d="M122.656 248.538C122.656 248.538 127.657 264.106 127.979 269.406C128.3 274.706 118.418 344.698 118.021 347.14C117.646 349.442 114.788 350.908 114.788 350.908C114.788 350.908 113.473 351.684 111.596 351.154C108.993 350.42 108.17 349.54 108.17 349.54C108.17 349.54 104.278 299.622 106.687 281.79C109.096 263.958 109.124 248.538 109.124 248.538H122.656Z" fill="#233862"/>
</g>
<mask id="mask35_1_3" style="mask-type:luminance" maskUnits="userSpaceOnUse" x="-28" y="0" width="600" height="400">
<path fill-rule="evenodd" clip-rule="evenodd" d="M-28 -3.57628e-05V400H572V-3.57628e-05H-28Z" fill="white"/>
</mask>
<g mask="url(#mask35_1_3)">
<path d="M101.467 248.074C101.467 248.074 93.8378 258.31 93.1266 265.23C92.4154 272.15 92.0108 296.454 90.4958 303.2C88.9806 309.946 83.4135 322.926 83.4135 343.966C83.4135 343.966 83.9921 345.172 85.7791 345.814C86.3503 346.02 87.1158 346.22 87.859 346.39C89.3326 346.728 90.8442 346.008 91.5166 344.654C95.2804 337.076 107.269 312.634 107.884 307.562C108.319 303.972 112.104 280.208 120.362 266.266C122.344 262.918 119.145 249.606 119.145 249.606L101.467 248.074Z" fill="#2A468A"/>
</g>
<mask id="mask36_1_3" style="mask-type:luminance" maskUnits="userSpaceOnUse" x="-28" y="0" width="600" height="400">
<path fill-rule="evenodd" clip-rule="evenodd" d="M-28 -3.57628e-05V400H572V-3.57628e-05H-28Z" fill="white"/>
</mask>
<g mask="url(#mask36_1_3)">
<path d="M123.455 246.136C123.455 246.136 121.447 247.724 117.459 247.804C112.695 247.9 100.889 246.59 100.889 246.59C100.889 246.59 100.365 248.054 100.386 249.602C100.386 249.602 114.804 253.24 123.158 250.134C123.158 250.134 124.236 248.106 123.455 246.136Z" fill="#233862"/>
</g>
<mask id="mask37_1_3" style="mask-type:luminance" maskUnits="userSpaceOnUse" x="-28" y="0" width="600" height="400">
<path fill-rule="evenodd" clip-rule="evenodd" d="M-28 -3.57628e-05V400H572V-3.57628e-05H-28Z" fill="white"/>
</mask>
<g mask="url(#mask37_1_3)">
<path d="M117.148 249.448C117.148 250.408 117.8 251.188 118.602 251.188C119.403 251.188 120.055 250.408 120.055 249.448C120.055 248.49 119.403 247.708 118.602 247.708C117.8 247.708 117.148 248.49 117.148 249.448ZM116.428 249.448C116.428 248.092 117.403 246.988 118.602 246.988C119.8 246.988 120.776 248.092 120.776 249.448C120.776 250.806 119.8 251.91 118.602 251.91C117.403 251.91 116.428 250.806 116.428 249.448Z" fill="white"/>
</g>
<mask id="mask38_1_3" style="mask-type:luminance" maskUnits="userSpaceOnUse" x="-28" y="0" width="600" height="400">
<path fill-rule="evenodd" clip-rule="evenodd" d="M-28 -3.57628e-05V400H572V-3.57628e-05H-28Z" fill="white"/>
</mask>
<g mask="url(#mask38_1_3)">
<path d="M86.8999 250.286L98.6079 260.48C99.4539 261.216 100.737 261.128 101.473 260.282L116.413 243.126C117.149 242.28 117.061 240.996 116.215 240.26L104.507 230.066C103.661 229.328 102.378 229.418 101.641 230.264L86.7018 247.42C85.9652 248.266 86.0539 249.548 86.8999 250.286Z" fill="#F68248"/>
</g>
<mask id="mask39_1_3" style="mask-type:luminance" maskUnits="userSpaceOnUse" x="-28" y="0" width="600" height="400">
<path fill-rule="evenodd" clip-rule="evenodd" d="M-28 -3.57628e-05V400H572V-3.57628e-05H-28Z" fill="white"/>
</mask>
<g mask="url(#mask39_1_3)">
<path d="M104.221 248.998C104.387 249.042 110.44 249.754 110.441 251.004C110.442 252.45 108.667 254.388 106.995 254.296C106.317 254.26 103.195 251.388 103.195 251.388L104.221 248.998Z" fill="#FFB17C"/>
</g>
<mask id="mask40_1_3" style="mask-type:luminance" maskUnits="userSpaceOnUse" x="-28" y="0" width="600" height="400">
<path fill-rule="evenodd" clip-rule="evenodd" d="M-28 -3.57628e-05V400H572V-3.57628e-05H-28Z" fill="white"/>
</mask>
<g mask="url(#mask40_1_3)">
<path d="M107.329 212.93C108.018 211.26 108.42 208.716 108.408 205.568L108.866 205.658L116.554 207.18C116.554 207.18 116.379 209.6 116.374 211.88C116.374 211.898 116.374 211.918 116.374 211.936C116.365 213.916 117.712 215.902 114.536 216.688C113.555 216.93 105.883 216.438 107.329 212.93Z" fill="#FFB17C"/>
</g>
<mask id="mask41_1_3" style="mask-type:luminance" maskUnits="userSpaceOnUse" x="-28" y="0" width="600" height="400">
<path fill-rule="evenodd" clip-rule="evenodd" d="M-28 -3.57628e-05V400H572V-3.57628e-05H-28Z" fill="white"/>
</mask>
<g mask="url(#mask41_1_3)">
<path d="M116.554 207.18C116.554 207.18 116.379 209.6 116.374 211.88C112.072 211.758 109.798 207.834 108.866 205.658L116.554 207.18Z" fill="#E8935B"/>
</g>
<mask id="mask42_1_3" style="mask-type:luminance" maskUnits="userSpaceOnUse" x="-28" y="0" width="600" height="400">
<path fill-rule="evenodd" clip-rule="evenodd" d="M-28 -3.57628e-05V400H572V-3.57628e-05H-28Z" fill="white"/>
</mask>
<g mask="url(#mask42_1_3)">
<path d="M117.991 209.338C117.991 209.338 107.812 209.506 107.805 203.166C107.798 196.825 106.479 192.576 112.978 192.201C119.477 191.826 120.743 194.244 121.26 196.36C121.777 198.476 120.639 209.132 117.991 209.338Z" fill="#FFB17C"/>
</g>
<mask id="mask43_1_3" style="mask-type:luminance" maskUnits="userSpaceOnUse" x="-28" y="0" width="600" height="400">
<path fill-rule="evenodd" clip-rule="evenodd" d="M-28 -3.57628e-05V400H572V-3.57628e-05H-28Z" fill="white"/>
</mask>
<g mask="url(#mask43_1_3)">
<path d="M117.614 192.046C117.614 192.046 114.827 199.485 110.55 200.584C106.273 201.684 104.417 200.538 104.417 200.538C104.417 200.538 107.698 197.932 108.379 193.382C108.379 193.382 115.512 188.505 117.614 192.046Z" fill="#153460"/>
</g>
<mask id="mask44_1_3" style="mask-type:luminance" maskUnits="userSpaceOnUse" x="-28" y="0" width="600" height="400">
<path fill-rule="evenodd" clip-rule="evenodd" d="M-28 -3.57628e-05V400H572V-3.57628e-05H-28Z" fill="white"/>
</mask>
<g mask="url(#mask44_1_3)">
<path d="M116.924 192.65C116.924 192.65 118.99 193.422 119.841 194.929C120.673 196.404 121.382 198.356 121.217 200.75C121.217 200.75 123.317 195.694 120.957 192.834C118.455 189.801 116.924 192.65 116.924 192.65Z" fill="#153460"/>
</g>
<mask id="mask45_1_3" style="mask-type:luminance" maskUnits="userSpaceOnUse" x="-28" y="0" width="600" height="400">
<path fill-rule="evenodd" clip-rule="evenodd" d="M-28 -3.57628e-05V400H572V-3.57628e-05H-28Z" fill="white"/>
</mask>
<g mask="url(#mask45_1_3)">
<path d="M104.221 248.998C104.221 248.998 105.672 248.532 106.641 248.668C107.61 248.804 108.328 248.648 108.328 248.92C108.328 249.192 107.076 249.318 106.81 249.448C106.544 249.58 104.221 248.998 104.221 248.998Z" fill="#FFB17C"/>
</g>
<mask id="mask46_1_3" style="mask-type:luminance" maskUnits="userSpaceOnUse" x="-28" y="0" width="600" height="400">
<path fill-rule="evenodd" clip-rule="evenodd" d="M-28 -3.57628e-05V400H572V-3.57628e-05H-28Z" fill="white"/>
</mask>
<g mask="url(#mask46_1_3)">
<path d="M102.411 213.592C102.411 213.592 95.1853 214.1 92.4153 220.832C89.6455 227.566 84.3901 238.872 84.3901 240.774C84.3901 242.676 87.3257 248.538 103.092 251.91C103.092 251.91 104.723 250.194 104.624 248.838C104.624 248.838 94.7819 240.384 94.8085 239.396C94.8585 237.528 96.4219 235.06 105.063 226.416C107.412 224.066 102.411 213.592 102.411 213.592Z" fill="#AEC3FF"/>
</g>
<mask id="mask47_1_3" style="mask-type:luminance" maskUnits="userSpaceOnUse" x="-28" y="0" width="600" height="400">
<path fill-rule="evenodd" clip-rule="evenodd" d="M-28 -3.57628e-05V400H572V-3.57628e-05H-28Z" fill="white"/>
</mask>
<g mask="url(#mask47_1_3)">
<path d="M304.354 156.215H226.266C224.378 156.215 222.568 156.965 221.232 158.301L166.016 213.516C164.681 214.852 163.931 216.662 163.931 218.552V296.638C163.931 298.526 164.681 300.338 166.016 301.674L221.232 356.888C222.568 358.224 224.378 358.974 226.266 358.974H304.354C306.242 358.974 308.054 358.224 309.388 356.888L364.604 301.674C365.94 300.338 366.69 298.526 366.69 296.638V218.552C366.69 216.662 365.94 214.852 364.604 213.516L309.388 158.301C308.054 156.965 306.242 156.215 304.354 156.215Z" fill="#F68248"/>
</g>
<mask id="mask48_1_3" style="mask-type:luminance" maskUnits="userSpaceOnUse" x="-28" y="0" width="600" height="400">
<path fill-rule="evenodd" clip-rule="evenodd" d="M-28 -3.57628e-05V400H572V-3.57628e-05H-28Z" fill="white"/>
</mask>
<g mask="url(#mask48_1_3)">
<path d="M231.76 173.323C230.886 173.323 230.064 173.663 229.444 174.282L181.998 221.73C181.38 222.348 181.038 223.17 181.038 224.044V291.144C181.038 292.02 181.38 292.842 181.998 293.46L229.444 340.908C230.062 341.526 230.886 341.866 231.76 341.866H298.86C299.734 341.866 300.558 341.526 301.176 340.908L348.622 293.46C349.242 292.842 349.582 292.02 349.582 291.144V224.044C349.582 223.17 349.242 222.348 348.622 221.73L301.176 174.282C300.558 173.663 299.734 173.323 298.86 173.323H231.76ZM298.86 348.824H231.76C229.028 348.824 226.458 347.76 224.524 345.828L177.078 298.38C175.146 296.448 174.08 293.878 174.08 291.144V224.044C174.08 221.312 175.146 218.742 177.078 216.808L224.524 169.363C226.458 167.429 229.028 166.365 231.76 166.365H298.86C301.594 166.365 304.164 167.429 306.096 169.363L353.542 216.81C355.476 218.742 356.54 221.312 356.54 224.044V291.144C356.54 293.878 355.476 296.448 353.542 298.38L306.096 345.826C304.164 347.76 301.594 348.824 298.86 348.824Z" fill="#FFE4D4"/>
</g>
<mask id="mask49_1_3" style="mask-type:luminance" maskUnits="userSpaceOnUse" x="-28" y="0" width="600" height="400">
<path fill-rule="evenodd" clip-rule="evenodd" d="M-28 -3.57628e-05V400H572V-3.57628e-05H-28Z" fill="white"/>
</mask>
<g mask="url(#mask49_1_3)">
<path d="M319.428 260.148L318.062 258.964C314.628 255.992 309.384 256.368 306.412 259.802L298.69 268.72C297.586 269.994 295.494 269.214 295.494 267.528C295.494 266.822 295.454 266.124 295.382 265.436V209.294C295.382 205.606 292.364 202.59 288.678 202.59H288.182C284.494 202.59 281.478 205.606 281.478 209.294V245.832C281.478 246.72 280.76 247.438 279.872 247.438C278.894 247.438 278.1 246.644 278.1 245.666V202.214C278.1 198.651 275.184 195.735 271.62 195.735H270.678C267.114 195.735 264.198 198.651 264.198 202.214V245.952C264.198 246.772 263.532 247.438 262.712 247.438C261.666 247.438 260.82 246.592 260.82 245.546V210.68C260.82 206.992 257.804 203.976 254.116 203.976H253.62C249.934 203.976 246.916 206.992 246.916 210.68V245.83C246.916 246.718 246.196 247.438 245.308 247.438C244.332 247.438 243.54 246.646 243.54 245.668V218.168C243.54 214.482 240.522 211.464 236.836 211.464H236.34C232.652 211.464 229.636 214.482 229.636 218.168V266.454C229.636 266.588 229.642 266.72 229.65 266.852C229.642 267.076 229.636 267.302 229.636 267.528V294.106C229.636 304.908 238.474 313.746 249.276 313.746H275.854C282.762 313.746 288.866 310.13 292.37 304.698C293.428 303.058 294.574 301.474 295.852 299.998L320.266 271.798C323.24 268.364 322.864 263.122 319.428 260.148Z" fill="#FFE4D4"/>
</g>
</svg>
