<svg width="177" height="41" viewBox="0 0 177 41" fill="none" xmlns="http://www.w3.org/2000/svg">
<path d="M63.875 27.0469C63.875 26.6406 63.8125 26.276 63.6875 25.9531C63.5729 25.6198 63.3542 25.3177 63.0312 25.0469C62.7083 24.7656 62.2552 24.4896 61.6719 24.2188C61.0885 23.9479 60.3333 23.6667 59.4062 23.375C58.375 23.0417 57.3958 22.6667 56.4688 22.25C55.5521 21.8333 54.7396 21.349 54.0312 20.7969C53.3333 20.2344 52.7812 19.5833 52.375 18.8438C51.9792 18.1042 51.7812 17.2448 51.7812 16.2656C51.7812 15.3177 51.9896 14.4583 52.4062 13.6875C52.8229 12.9062 53.4062 12.2396 54.1562 11.6875C54.9062 11.125 55.7917 10.6927 56.8125 10.3906C57.8438 10.0885 58.974 9.9375 60.2031 9.9375C61.8802 9.9375 63.3438 10.2396 64.5938 10.8438C65.8438 11.4479 66.8125 12.276 67.5 13.3281C68.1979 14.3802 68.5469 15.5833 68.5469 16.9375H63.8906C63.8906 16.2708 63.75 15.6875 63.4688 15.1875C63.1979 14.6771 62.7812 14.276 62.2188 13.9844C61.6667 13.6927 60.9688 13.5469 60.125 13.5469C59.3125 13.5469 58.6354 13.6719 58.0938 13.9219C57.5521 14.1615 57.1458 14.4896 56.875 14.9062C56.6042 15.3125 56.4688 15.7708 56.4688 16.2812C56.4688 16.6667 56.5625 17.0156 56.75 17.3281C56.9479 17.6406 57.2396 17.9323 57.625 18.2031C58.0104 18.474 58.4844 18.7292 59.0469 18.9688C59.6094 19.2083 60.2604 19.4427 61 19.6719C62.2396 20.0469 63.3281 20.4688 64.2656 20.9375C65.2135 21.4062 66.0052 21.9323 66.6406 22.5156C67.276 23.099 67.7552 23.7604 68.0781 24.5C68.401 25.2396 68.5625 26.0781 68.5625 27.0156C68.5625 28.0052 68.3698 28.8906 67.9844 29.6719C67.599 30.4531 67.0417 31.1146 66.3125 31.6562C65.5833 32.1979 64.7135 32.6094 63.7031 32.8906C62.6927 33.1719 61.5625 33.3125 60.3125 33.3125C59.1875 33.3125 58.0781 33.1667 56.9844 32.875C55.8906 32.5729 54.8958 32.1198 54 31.5156C53.1146 30.9115 52.4062 30.1406 51.875 29.2031C51.3438 28.2656 51.0781 27.1562 51.0781 25.875H55.7812C55.7812 26.5833 55.8906 27.1823 56.1094 27.6719C56.3281 28.1615 56.6354 28.5573 57.0312 28.8594C57.4375 29.1615 57.9167 29.3802 58.4688 29.5156C59.0312 29.651 59.6458 29.7188 60.3125 29.7188C61.125 29.7188 61.7917 29.6042 62.3125 29.375C62.8438 29.1458 63.2344 28.8281 63.4844 28.4219C63.7448 28.0156 63.875 27.5573 63.875 27.0469ZM76.2188 16.0938V33H71.7031V16.0938H76.2188ZM71.4219 11.6875C71.4219 11.0312 71.651 10.4896 72.1094 10.0625C72.5677 9.63542 73.1823 9.42188 73.9531 9.42188C74.7135 9.42188 75.3229 9.63542 75.7812 10.0625C76.25 10.4896 76.4844 11.0312 76.4844 11.6875C76.4844 12.3438 76.25 12.8854 75.7812 13.3125C75.3229 13.7396 74.7135 13.9531 73.9531 13.9531C73.1823 13.9531 72.5677 13.7396 72.1094 13.3125C71.651 12.8854 71.4219 12.3438 71.4219 11.6875ZM88.2188 16.0938V19.2812H78.375V16.0938H88.2188ZM80.8125 11.9219H85.3125V27.9062C85.3125 28.3958 85.375 28.7708 85.5 29.0312C85.6354 29.2917 85.8333 29.474 86.0938 29.5781C86.3542 29.6719 86.6823 29.7188 87.0781 29.7188C87.3594 29.7188 87.6094 29.7083 87.8281 29.6875C88.0573 29.6562 88.25 29.625 88.4062 29.5938L88.4219 32.9062C88.0365 33.0312 87.6198 33.1302 87.1719 33.2031C86.724 33.276 86.2292 33.3125 85.6875 33.3125C84.6979 33.3125 83.8333 33.151 83.0938 32.8281C82.3646 32.4948 81.8021 31.9635 81.4062 31.2344C81.0104 30.5052 80.8125 29.5469 80.8125 28.3594V11.9219ZM98.5625 33.3125C97.25 33.3125 96.0729 33.1042 95.0312 32.6875C93.9896 32.2604 93.1042 31.6719 92.375 30.9219C91.6562 30.1719 91.1042 29.3021 90.7188 28.3125C90.3333 27.3125 90.1406 26.25 90.1406 25.125V24.5C90.1406 23.2188 90.3229 22.0469 90.6875 20.9844C91.0521 19.9219 91.5729 19 92.25 18.2188C92.9375 17.4375 93.7708 16.8385 94.75 16.4219C95.7292 15.9948 96.8333 15.7812 98.0625 15.7812C99.2604 15.7812 100.323 15.9792 101.25 16.375C102.177 16.7708 102.953 17.3333 103.578 18.0625C104.214 18.7917 104.693 19.6667 105.016 20.6875C105.339 21.6979 105.5 22.8229 105.5 24.0625V25.9375H92.0625V22.9375H101.078V22.5938C101.078 21.9688 100.964 21.4115 100.734 20.9219C100.516 20.4219 100.182 20.026 99.7344 19.7344C99.2865 19.4427 98.7135 19.2969 98.0156 19.2969C97.4219 19.2969 96.9115 19.4271 96.4844 19.6875C96.0573 19.9479 95.7083 20.3125 95.4375 20.7812C95.1771 21.25 94.9792 21.8021 94.8438 22.4375C94.7188 23.0625 94.6562 23.75 94.6562 24.5V25.125C94.6562 25.8021 94.75 26.4271 94.9375 27C95.1354 27.5729 95.4115 28.0677 95.7656 28.4844C96.1302 28.901 96.5677 29.224 97.0781 29.4531C97.599 29.6823 98.1875 29.7969 98.8438 29.7969C99.6562 29.7969 100.411 29.6406 101.109 29.3281C101.818 29.0052 102.427 28.5208 102.938 27.875L105.125 30.25C104.771 30.7604 104.286 31.25 103.672 31.7188C103.068 32.1875 102.339 32.5729 101.484 32.875C100.63 33.1667 99.6562 33.3125 98.5625 33.3125ZM117.594 14.1406L111.406 33H106.422L114.875 10.25H118.047L117.594 14.1406ZM122.734 33L116.531 14.1406L116.031 10.25H119.234L127.734 33H122.734ZM122.453 24.5312V28.2031H110.438V24.5312H122.453ZM134.312 9V33H129.797V9H134.312ZM145.812 33.3125C144.5 33.3125 143.323 33.1042 142.281 32.6875C141.24 32.2604 140.354 31.6719 139.625 30.9219C138.906 30.1719 138.354 29.3021 137.969 28.3125C137.583 27.3125 137.391 26.25 137.391 25.125V24.5C137.391 23.2188 137.573 22.0469 137.938 20.9844C138.302 19.9219 138.823 19 139.5 18.2188C140.188 17.4375 141.021 16.8385 142 16.4219C142.979 15.9948 144.083 15.7812 145.312 15.7812C146.51 15.7812 147.573 15.9792 148.5 16.375C149.427 16.7708 150.203 17.3333 150.828 18.0625C151.464 18.7917 151.943 19.6667 152.266 20.6875C152.589 21.6979 152.75 22.8229 152.75 24.0625V25.9375H139.312V22.9375H148.328V22.5938C148.328 21.9688 148.214 21.4115 147.984 20.9219C147.766 20.4219 147.432 20.026 146.984 19.7344C146.536 19.4427 145.964 19.2969 145.266 19.2969C144.672 19.2969 144.161 19.4271 143.734 19.6875C143.307 19.9479 142.958 20.3125 142.688 20.7812C142.427 21.25 142.229 21.8021 142.094 22.4375C141.969 23.0625 141.906 23.75 141.906 24.5V25.125C141.906 25.8021 142 26.4271 142.188 27C142.385 27.5729 142.661 28.0677 143.016 28.4844C143.38 28.901 143.818 29.224 144.328 29.4531C144.849 29.6823 145.438 29.7969 146.094 29.7969C146.906 29.7969 147.661 29.6406 148.359 29.3281C149.068 29.0052 149.677 28.5208 150.188 27.875L152.375 30.25C152.021 30.7604 151.536 31.25 150.922 31.7188C150.318 32.1875 149.589 32.5729 148.734 32.875C147.88 33.1667 146.906 33.3125 145.812 33.3125ZM159.812 19.7812V33H155.312V16.0938H159.547L159.812 19.7812ZM164.906 15.9844L164.828 20.1562C164.609 20.125 164.344 20.099 164.031 20.0781C163.729 20.0469 163.453 20.0312 163.203 20.0312C162.568 20.0312 162.016 20.1146 161.547 20.2812C161.089 20.4375 160.703 20.6719 160.391 20.9844C160.089 21.2969 159.859 21.6771 159.703 22.125C159.557 22.5729 159.474 23.0833 159.453 23.6562L158.547 23.375C158.547 22.2812 158.656 21.276 158.875 20.3594C159.094 19.4323 159.411 18.625 159.828 17.9375C160.255 17.25 160.776 16.7188 161.391 16.3438C162.005 15.9688 162.708 15.7812 163.5 15.7812C163.75 15.7812 164.005 15.8021 164.266 15.8438C164.526 15.875 164.74 15.9219 164.906 15.9844ZM176.094 16.0938V19.2812H166.25V16.0938H176.094ZM168.688 11.9219H173.188V27.9062C173.188 28.3958 173.25 28.7708 173.375 29.0312C173.51 29.2917 173.708 29.474 173.969 29.5781C174.229 29.6719 174.557 29.7188 174.953 29.7188C175.234 29.7188 175.484 29.7083 175.703 29.6875C175.932 29.6562 176.125 29.625 176.281 29.5938L176.297 32.9062C175.911 33.0312 175.495 33.1302 175.047 33.2031C174.599 33.276 174.104 33.3125 173.562 33.3125C172.573 33.3125 171.708 33.151 170.969 32.8281C170.24 32.4948 169.677 31.9635 169.281 31.2344C168.885 30.5052 168.688 29.5469 168.688 28.3594V11.9219Z" fill="#1D1D1D"/>
<circle cx="20.5" cy="20.5" r="20.5" fill="#1D1D1D"/>
<path d="M20.4999 10.25L28.5697 24.9261H12.4302L20.4999 10.25Z" fill="white"/>
</svg>
