<svg width="290" height="300" viewBox="0 0 290 300" fill="none" xmlns="http://www.w3.org/2000/svg">
<rect width="290" height="300" rx="16" fill="#09093A"/>
<path fill-rule="evenodd" clip-rule="evenodd" d="M43 150.01V263.895H74.8214H106.643L106.671 166.323L106.699 68.7505L107.364 68.4251C109.745 67.2603 114.673 65.4563 117.857 64.5833C121.312 63.6364 125.487 62.9075 128.874 62.66C131.969 62.4339 137.137 62.6607 140.6 63.1746C153.087 65.0274 162.696 71.0456 169.334 81.1711C172.31 85.7096 173.846 89.1584 175.155 94.2386C176.363 98.9274 176.844 103.79 176.503 107.864C175.752 116.83 171.878 125.447 164.9 133.672C164.433 134.222 160.718 138.064 156.644 142.21C148.756 150.237 147.941 151.113 146.18 153.468C143.091 157.596 141.78 160.707 141.337 164.958C141.157 166.689 141.263 169.713 141.557 171.251C142.47 176.021 144.801 182.665 148.586 191.289C150.141 194.83 170.317 238.453 171.721 241.308C173.023 243.956 174.289 246.161 175.71 248.252C179.137 253.298 183.727 257.691 187.57 259.6C191.962 261.783 197.168 262.932 206.099 263.688C207.13 263.776 214.665 263.83 230.298 263.861L253 263.907V263.635C253 263.397 227.293 208.82 225.172 204.554C221.372 196.913 216.3 190.662 210.146 186.036C209.353 185.44 207.772 184.349 206.632 183.611C204.31 182.107 203.626 181.604 202.107 180.285C198.904 177.503 197.406 174.522 197.79 171.695C198.144 169.093 200.059 165.457 203.551 160.758C204.579 159.373 205.621 158.286 213.522 150.344C225.948 137.855 227.001 136.708 229.455 132.999C234.682 125.1 237.637 117.186 238.493 108.794C238.683 106.939 238.681 100.448 238.49 98.2537C237.972 92.2792 236.763 86.8241 234.804 81.6071C229.612 67.7881 220.124 56.647 206.709 48.6169C198.626 43.7783 187.925 39.9341 177.68 38.1881C171.34 37.1078 166.39 36.6959 154.209 36.2348C152.658 36.176 128.227 36.1303 97.2463 36.128L43 36.1241V150.01Z" fill="white"/>
</svg>
