<svg width="602" height="482" viewBox="0 0 602 482" fill="none" xmlns="http://www.w3.org/2000/svg">
<g clip-path="url(#clip0_2_2)">
<mask id="mask0_2_2" style="mask-type:luminance" maskUnits="userSpaceOnUse" x="0" y="0" width="602" height="482">
<path fill-rule="evenodd" clip-rule="evenodd" d="M0 -2.31266e-05V482H602V-2.31266e-05H0Z" fill="white"/>
</mask>
<g mask="url(#mask0_2_2)">
<path d="M287.922 31.8403C285.008 30.1952 281.974 29.0704 278.904 28.4976L279.342 25.9187C282.675 26.5404 285.962 27.757 289.107 29.5344L287.922 31.8403ZM260.608 31.842L259.26 29.6356C262.222 27.6495 265.484 26.358 268.959 25.7974L269.34 28.3863C266.212 28.8912 263.274 30.0537 260.608 31.842ZM302.51 45.3266C300.326 42.4573 298.072 39.9152 295.808 37.772L297.487 35.8291C299.849 38.0672 302.197 40.7134 304.465 43.6931L302.51 45.3266ZM248.501 47.3286L246.259 46.1694C247.899 42.6843 249.719 39.6029 251.67 37.0105L253.632 38.6314C251.792 41.0807 250.064 44.0069 248.501 47.3286ZM313.233 62.8765C311.588 59.6317 309.91 56.5854 308.241 53.8226L310.353 52.4219C312.055 55.2406 313.767 58.3445 315.441 61.6479L313.233 62.8765ZM241.949 66.9542L239.522 66.3194C240.394 62.6615 241.356 59.2162 242.38 56.0786L244.744 56.926C243.745 59.9937 242.803 63.3679 241.949 66.9542ZM321.699 81.9056C320.355 78.5198 319 75.2803 317.673 72.2774L319.941 71.1765C321.283 74.2107 322.65 77.4823 324.006 80.8997L321.699 81.9056ZM238.19 87.5783L235.716 87.2038C236.221 83.5362 236.777 80.0092 237.368 76.7207L239.825 77.2049C239.241 80.4572 238.691 83.9474 238.19 87.5783ZM328.892 101.559C327.685 98.0261 326.546 94.7964 325.412 91.6861L327.748 90.7513C328.887 93.879 330.033 97.125 331.247 100.676L328.892 101.559ZM235.916 108.513L233.425 108.281C233.737 104.605 234.076 101.056 234.433 97.7306L236.917 98.0237C236.563 101.329 236.226 104.857 235.916 108.513ZM459.882 112.931C456.786 111.563 453.653 110.716 450.566 110.414L450.799 107.806C454.139 108.133 457.522 109.045 460.853 110.518L459.882 112.931ZM432.604 116.141L431.172 113.994C434.244 111.74 437.351 110.071 440.401 109.033L441.172 111.525C438.359 112.482 435.475 114.035 432.604 116.141ZM335.444 121.523C334.201 117.626 333.176 114.448 332.22 111.522L334.584 110.673C335.543 113.605 336.571 116.789 337.816 120.693L335.444 121.523ZM475.739 124.786C473.331 122.203 470.841 119.922 468.332 118.008L469.803 115.89C472.425 117.891 475.024 120.268 477.528 122.957L475.739 124.786ZM134.331 129.021C131.211 127.394 128.143 126.356 125.211 125.935L125.55 123.34C128.752 123.799 132.081 124.922 135.445 126.675L134.331 129.021ZM234.461 129.569L231.965 129.413C232.182 125.606 232.397 122.148 232.622 118.842L235.116 119.029C234.891 122.324 234.677 125.772 234.461 129.569ZM418.503 130.599L416.56 128.95C418.905 125.919 421.128 123.31 423.353 120.976L425.12 122.827C422.958 125.097 420.793 127.639 418.503 130.599ZM107.364 131.4L105.847 129.318C108.833 126.931 111.941 125.21 115.083 124.203L115.815 126.708C112.956 127.624 110.113 129.203 107.364 131.4ZM487.752 141.276C485.961 138.213 484.083 135.316 482.171 132.666L484.164 131.086C486.127 133.804 488.051 136.772 489.883 139.907L487.752 141.276ZM150.064 141.388C147.509 138.781 144.996 136.479 142.597 134.544L144.121 132.467C146.598 134.464 149.184 136.834 151.808 139.511L150.064 141.388ZM341.854 141.571C340.708 138.051 339.583 134.528 338.632 131.547L341.004 130.718C341.953 133.695 343.075 137.212 344.221 140.725L341.854 141.571ZM94.5281 146.9L92.4211 145.491C94.3858 142.267 96.4114 139.355 98.4416 136.837L100.352 138.527C98.3927 140.957 96.4333 143.774 94.5281 146.9ZM406.81 147.64L404.725 146.195C406.815 142.884 408.681 140.019 410.436 137.438L412.474 138.957C410.735 141.514 408.883 144.354 406.81 147.64ZM233.387 150.677L230.89 150.545C231.058 147.045 231.225 143.544 231.404 139.981L233.901 140.118C233.722 143.679 233.555 147.179 233.387 150.677ZM163.394 157.001C161.125 154.051 159.014 151.425 156.938 148.973L158.808 147.235C160.91 149.718 163.047 152.375 165.34 155.358L163.394 157.001ZM496.833 159.86C495.489 156.58 494.066 153.393 492.607 150.389L494.834 149.2C496.32 152.255 497.765 155.494 499.13 158.827L496.833 159.86ZM348.77 161.494C347.638 158.518 346.468 155.271 345.192 151.567L347.544 150.679C348.808 154.354 349.969 157.575 351.091 160.524L348.77 161.494ZM395.846 165.368L393.756 163.929C395.533 161.099 397.368 158.1 399.227 155.071L401.329 156.487C399.468 159.524 397.631 162.525 395.846 165.368ZM85.2515 165.368L82.9644 164.311C84.3367 161.054 85.7994 157.856 87.3535 154.729L89.5703 155.94C88.041 159.017 86.6022 162.164 85.2515 165.368ZM232.276 171.817L229.781 171.648C229.97 168.579 230.163 165.129 230.37 161.102L232.867 161.243C232.659 165.28 232.466 168.738 232.276 171.817ZM175.565 173.764C173.278 170.489 171.372 167.8 169.566 165.302L171.559 163.72C173.373 166.23 175.287 168.93 177.583 172.217L175.565 173.764ZM503.705 179.525C502.699 176.131 501.622 172.79 500.51 169.594L502.86 168.697C503.985 171.931 505.073 175.313 506.092 178.747L503.705 179.525ZM357.696 180.685C356.078 178.069 354.474 174.989 352.794 171.269L355.055 170.149C356.685 173.763 358.236 176.743 359.794 179.26L357.696 180.685ZM383.717 182.486L381.88 180.709C383.777 178.558 385.807 175.905 388.093 172.597L390.118 174.133C387.775 177.525 385.682 180.258 383.717 182.486ZM78.3112 184.983L75.9203 184.217C76.9136 180.814 78.0035 177.429 79.1595 174.156L81.504 175.065C80.3647 178.291 79.2905 181.628 78.3112 184.983ZM370.483 190.627C368.535 190.627 366.625 190.018 364.805 188.816L366.136 186.6C368.872 188.408 371.562 188.412 374.468 186.97L375.542 189.334C373.825 190.192 372.123 190.627 370.483 190.627ZM187.447 190.843C185.414 187.967 183.307 184.927 181.49 182.304L183.514 180.766C185.327 183.384 187.43 186.418 189.456 189.284L187.447 190.843ZM230.46 192.972L227.98 192.637C228.365 189.511 228.709 186.087 229.033 182.17L231.523 182.396C231.196 186.349 230.849 189.809 230.46 192.972ZM508.842 199.799C508.1 196.34 507.303 192.91 506.467 189.605L508.885 188.935C509.728 192.272 510.532 195.734 511.281 199.227L508.842 199.799ZM73.501 205.31L71.0468 204.811C71.6943 201.315 72.4273 197.829 73.225 194.449L75.6518 195.078C74.8644 198.415 74.1405 201.857 73.501 205.31ZM200.077 207.459C198.085 205.135 195.956 202.46 193.57 199.282L195.534 197.662C197.887 200.795 199.981 203.427 201.936 205.708L200.077 207.459ZM225.555 213.831L223.329 212.64C224.473 210.292 225.485 207.033 226.336 202.955L228.778 203.514C227.869 207.873 226.814 211.247 225.555 213.831ZM216.881 220.064C213.407 219.49 210.895 217.833 207.414 214.971L208.994 212.942C212.043 215.442 214.246 216.942 217.148 217.459L216.881 220.064ZM512.56 220.433C512.04 216.937 511.466 213.455 510.862 210.082L513.318 209.598C513.93 212.997 514.505 216.507 515.028 220.03L512.56 220.433ZM70.614 226.054L68.1263 225.792C68.4661 222.25 68.88 218.709 69.3571 215.269L71.8313 215.645C71.3593 219.048 70.9499 222.55 70.614 226.054ZM515.083 241.28C514.749 237.763 514.37 234.249 513.959 230.837L516.439 230.508C516.853 233.943 517.234 237.48 517.571 241.022L515.083 241.28ZM69.4259 246.996L66.9264 246.943C66.996 243.386 67.1301 239.825 67.3254 236.357L69.8213 236.511C69.6277 239.946 69.4948 243.473 69.4259 246.996ZM516.576 262.247C516.405 258.728 516.193 255.197 515.95 251.753L518.442 251.558C518.688 255.024 518.9 258.574 519.073 262.112L516.576 262.247ZM67.2293 268.117C67.0634 264.572 66.9536 261.013 66.9023 257.535L69.4023 257.494C69.4529 260.943 69.562 264.473 69.7262 267.99L67.2293 268.117ZM517.169 283.271C517.14 279.748 517.075 276.21 516.978 272.754L519.478 272.677C519.574 276.15 519.639 279.707 519.668 283.247L517.169 283.271ZM68.849 289.224C68.4764 285.698 68.1521 282.153 67.8848 278.685L70.3768 278.473C70.642 281.917 70.9639 285.436 71.334 288.935L68.849 289.224ZM519.456 304.388L516.959 304.311C517.055 300.79 517.123 297.252 517.159 293.791L519.658 293.818C519.622 297.295 519.555 300.85 519.456 304.388ZM71.6336 310.189C71.0776 306.699 70.5627 303.18 70.1038 299.727L72.5797 299.365C73.036 302.795 73.5472 306.292 74.0994 309.757L71.6336 310.189ZM518.522 325.499L516.027 325.336C516.239 321.829 516.424 318.294 516.579 314.826L519.076 314.949C518.922 318.431 518.734 321.981 518.522 325.499ZM75.4674 330.968C74.7452 327.519 74.0582 324.032 73.4251 320.605L75.8798 320.106C76.5088 323.514 77.1917 326.979 77.9091 330.406L75.4674 330.968ZM516.93 346.568L514.443 346.319C514.758 342.813 515.049 339.285 515.312 335.834L517.804 336.041C517.542 339.504 517.248 343.047 516.93 346.568ZM80.274 351.52C79.3989 348.137 78.5506 344.688 77.7518 341.275L80.1798 340.651C80.974 344.044 81.8172 347.471 82.6873 350.836L80.274 351.52ZM514.739 367.571L512.259 367.25C512.67 363.756 513.063 360.237 513.422 356.793L515.907 357.078C515.546 360.536 515.153 364.064 514.739 367.571ZM86.0399 371.81C85.0177 368.528 84.0064 365.127 83.034 361.703L85.4305 360.955C86.3966 364.358 87.4012 367.737 88.4166 370.995L86.0399 371.81Z" fill="#DBE6FF"/>
</g>
<mask id="mask1_2_2" style="mask-type:luminance" maskUnits="userSpaceOnUse" x="0" y="0" width="602" height="482">
<path fill-rule="evenodd" clip-rule="evenodd" d="M0 -2.31266e-05V482H602V-2.31266e-05H0Z" fill="white"/>
</mask>
<g mask="url(#mask1_2_2)">
<path d="M133.682 385.981C133.682 385.981 72.7921 229.301 116.61 194.412C130.884 183.047 145.575 189.431 161.176 195.815C177.585 202.53 195.001 209.245 213.996 195.304C246.984 171.093 236.497 97.4315 289.107 87.2497C317.972 81.6636 335.853 111.519 352.237 141.375C369.428 172.701 384.972 204.027 409.827 194.412C468.732 171.625 527.326 217.883 476.69 386.28L133.682 385.981Z" fill="#D4E8FF"/>
</g>
<mask id="mask2_2_2" style="mask-type:luminance" maskUnits="userSpaceOnUse" x="0" y="0" width="602" height="482">
<path fill-rule="evenodd" clip-rule="evenodd" d="M0 -2.31266e-05V482H602V-2.31266e-05H0Z" fill="white"/>
</mask>
<g mask="url(#mask2_2_2)">
<path d="M530.584 331.965C509.836 328.743 513.222 357.851 483.649 357.851C456.612 357.851 447.963 246.996 428.289 278.685C327.437 441.141 386 209.597 305.792 206.655C269.525 205.325 245.358 245.844 236.447 317.585C223.529 382.443 193.57 268.117 162.739 278.748C143.144 285.503 145.388 357.851 118.35 357.851C88.7771 357.851 92.1625 328.743 71.4162 331.965C49.0791 335.433 42.4072 386.957 42.4072 386.957H559.593C559.593 386.957 552.92 335.433 530.584 331.965Z" fill="#EDF6FF"/>
</g>
<mask id="mask3_2_2" style="mask-type:luminance" maskUnits="userSpaceOnUse" x="0" y="0" width="602" height="482">
<path fill-rule="evenodd" clip-rule="evenodd" d="M0 -2.31266e-05V482H602V-2.31266e-05H0Z" fill="white"/>
</mask>
<g mask="url(#mask3_2_2)">
<path d="M512.213 363.474C493.125 362.1 496.241 374.528 469.033 374.528C444.16 374.528 444.842 346.671 428.198 340.75C397.544 329.847 372.272 385.029 360.388 357.335C337.816 283.85 271.984 246.996 241.614 357.335C229.728 385.029 201.936 335.612 173.803 340.75C156.485 343.914 157.84 374.528 132.966 374.528C105.76 374.528 108.875 362.1 89.7882 363.474C69.2388 364.956 63.1011 386.957 63.1011 386.957H538.898C538.898 386.957 532.76 364.956 512.213 363.474Z" fill="#DBE6FF"/>
</g>
<mask id="mask4_2_2" style="mask-type:luminance" maskUnits="userSpaceOnUse" x="0" y="0" width="602" height="482">
<path fill-rule="evenodd" clip-rule="evenodd" d="M0 -2.31266e-05V482H602V-2.31266e-05H0Z" fill="white"/>
</mask>
<g mask="url(#mask4_2_2)">
<path d="M42.7919 386.957C42.7919 386.957 39.1633 403.027 54.1955 407.049C74.7564 412.551 195.446 427.009 166.126 437.996C149.575 444.197 174.575 452.617 255.192 455.719C335.807 458.821 474.137 446.669 427.62 428.693C381.099 410.715 570.628 424.35 559.084 386.957H42.7919Z" fill="#CFDDF9"/>
</g>
<mask id="mask5_2_2" style="mask-type:luminance" maskUnits="userSpaceOnUse" x="0" y="0" width="602" height="482">
<path fill-rule="evenodd" clip-rule="evenodd" d="M0 -2.31266e-05V482H602V-2.31266e-05H0Z" fill="white"/>
</mask>
<g mask="url(#mask5_2_2)">
<path d="M290.479 262.596C293.181 285.691 258.932 290.294 255.448 267.305C252.748 244.208 286.997 239.607 290.479 262.596Z" fill="#7589D6"/>
</g>
<mask id="mask6_2_2" style="mask-type:luminance" maskUnits="userSpaceOnUse" x="0" y="0" width="602" height="482">
<path fill-rule="evenodd" clip-rule="evenodd" d="M0 -2.31266e-05V482H602V-2.31266e-05H0Z" fill="white"/>
</mask>
<g mask="url(#mask6_2_2)">
<path d="M203.141 119.06C190.439 77.054 223.874 37.2311 267.372 41.2013C324.572 47.4955 334.88 121.688 301.445 159.872C285.447 176.297 270.746 204.797 271.589 225.302C271.661 237.444 261.725 236.483 258.087 225.662C245.337 175.525 273.079 162.196 284.886 122.797C294.096 59.093 223.822 69.0263 211.968 118.839C210.666 123.107 204.36 123.559 203.141 119.06Z" fill="#7589D6"/>
</g>
<mask id="mask7_2_2" style="mask-type:luminance" maskUnits="userSpaceOnUse" x="0" y="0" width="602" height="482">
<path fill-rule="evenodd" clip-rule="evenodd" d="M0 -2.31266e-05V482H602V-2.31266e-05H0Z" fill="white"/>
</mask>
<g mask="url(#mask7_2_2)">
<path d="M361.585 181.016C359.606 192.681 342.225 190.029 343.804 178.305C345.784 166.641 363.167 169.292 361.585 181.016Z" fill="#FBB3B3"/>
</g>
<mask id="mask8_2_2" style="mask-type:luminance" maskUnits="userSpaceOnUse" x="0" y="0" width="602" height="482">
<path fill-rule="evenodd" clip-rule="evenodd" d="M0 -2.31266e-05V482H602V-2.31266e-05H0Z" fill="white"/>
</mask>
<g mask="url(#mask8_2_2)">
<path d="M339.432 98.4348C339.229 76.1061 361.241 61.4427 381.914 69.603C408.946 80.8579 403.386 118.561 381.608 132.424C371.448 138.156 360.201 149.97 357.684 160.104C355.987 166.043 351.272 164.153 351.041 158.348C351.972 132.042 367.425 129.502 378.814 111.951C392.408 82.1612 356.675 76.9614 343.773 99.5894C342.528 101.487 339.386 100.806 339.432 98.4348Z" fill="#FBB3B3"/>
</g>
<mask id="mask9_2_2" style="mask-type:luminance" maskUnits="userSpaceOnUse" x="0" y="0" width="602" height="482">
<path fill-rule="evenodd" clip-rule="evenodd" d="M0 -2.31266e-05V482H602V-2.31266e-05H0Z" fill="white"/>
</mask>
<g mask="url(#mask9_2_2)">
<path d="M219.828 268.92C223.263 276.866 211.546 282.177 207.845 274.354C204.41 266.411 216.127 261.099 219.828 268.92Z" fill="#FBB3B3"/>
</g>
<mask id="mask10_2_2" style="mask-type:luminance" maskUnits="userSpaceOnUse" x="0" y="0" width="602" height="482">
<path fill-rule="evenodd" clip-rule="evenodd" d="M0 -2.31266e-05V482H602V-2.31266e-05H0Z" fill="white"/>
</mask>
<g mask="url(#mask10_2_2)">
<path d="M173.335 227.117C164.312 213.505 171.968 195.725 187.899 192.478C208.963 188.59 220.576 213.933 212.745 231.128C208.799 238.698 206.608 250.433 209.103 257.653C210.428 261.972 206.783 262.695 204.329 259.227C194.418 242.723 202.882 234.997 202.873 219.687C199.339 195.991 175.352 207.065 176.457 226.092C176.45 227.753 174.25 228.59 173.335 227.117Z" fill="#FBB3B3"/>
</g>
<mask id="mask11_2_2" style="mask-type:luminance" maskUnits="userSpaceOnUse" x="0" y="0" width="602" height="482">
<path fill-rule="evenodd" clip-rule="evenodd" d="M0 -2.31266e-05V482H602V-2.31266e-05H0Z" fill="white"/>
</mask>
<g mask="url(#mask11_2_2)">
<path d="M411.989 204.195C397.78 201.479 400.477 191.847 386.722 196.645C386.722 196.645 374.396 186.779 372.843 210.189C371.588 229.067 380.832 238.161 395.201 245.919C412.25 255.125 439.058 245.097 437.943 223.786C437.168 208.975 425.934 206.86 411.989 204.195Z" fill="#1C3F70"/>
</g>
<mask id="mask12_2_2" style="mask-type:luminance" maskUnits="userSpaceOnUse" x="0" y="0" width="602" height="482">
<path fill-rule="evenodd" clip-rule="evenodd" d="M0 -2.31266e-05V482H602V-2.31266e-05H0Z" fill="white"/>
</mask>
<g mask="url(#mask12_2_2)">
<path d="M376.057 233.44C356.044 247.199 341.267 242.193 325.995 224.769C323.975 221.352 318.98 223.267 320.493 227.104C320.753 227.741 321.256 228.535 321.552 229.148C335.632 254.964 360.55 261.579 384.468 243.673C391.117 238.141 382.778 227.963 376.057 233.44Z" fill="#F99370"/>
</g>
<mask id="mask13_2_2" style="mask-type:luminance" maskUnits="userSpaceOnUse" x="0" y="0" width="602" height="482">
<path fill-rule="evenodd" clip-rule="evenodd" d="M0 -2.31266e-05V482H602V-2.31266e-05H0Z" fill="white"/>
</mask>
<g mask="url(#mask13_2_2)">
<path d="M382.352 230.061C382.352 230.061 376.782 230.414 374.066 232.581C371.352 234.749 363.625 238.533 357.894 239.318C352.16 240.103 342.685 237.128 339.138 234.278C335.591 231.429 333.106 228.528 330.748 230.112C330.748 230.112 328.945 232.645 324.252 233.627C324.252 233.627 321.87 240.088 331.11 247.999C340.128 255.72 359.803 264.707 382.183 253.356L382.352 230.061Z" fill="#23649A"/>
</g>
<mask id="mask14_2_2" style="mask-type:luminance" maskUnits="userSpaceOnUse" x="0" y="0" width="602" height="482">
<path fill-rule="evenodd" clip-rule="evenodd" d="M0 -2.31266e-05V482H602V-2.31266e-05H0Z" fill="white"/>
</mask>
<g mask="url(#mask14_2_2)">
<path d="M381.94 227.104L382.352 230.061C383.866 234.993 390.418 231.13 391.502 229.174C391.502 229.174 390.91 226.373 390.797 225.059L381.94 227.104Z" fill="#F99370"/>
</g>
<mask id="mask15_2_2" style="mask-type:luminance" maskUnits="userSpaceOnUse" x="0" y="0" width="602" height="482">
<path fill-rule="evenodd" clip-rule="evenodd" d="M0 -2.31266e-05V482H602V-2.31266e-05H0Z" fill="white"/>
</mask>
<g mask="url(#mask15_2_2)">
<path d="M441.762 412.941L455.492 396.086C454.832 395.069 450.084 392.577 448.716 391.191C447.736 390.492 436.777 379.324 435.609 378.206L427.726 387.882L441.444 396.471C443.069 397.491 443.741 399.52 443.053 401.313C441.704 405.388 438.239 408.466 439.06 412.45C439.455 413.621 440.982 413.898 441.762 412.941Z" fill="#F99370"/>
</g>
<mask id="mask16_2_2" style="mask-type:luminance" maskUnits="userSpaceOnUse" x="0" y="0" width="602" height="482">
<path fill-rule="evenodd" clip-rule="evenodd" d="M0 -2.31266e-05V482H602V-2.31266e-05H0Z" fill="white"/>
</mask>
<g mask="url(#mask16_2_2)">
<path d="M454.288 394.254C454.801 394.787 455.225 395.394 455.492 396.086L441.649 413.081C440.977 413.908 439.677 413.843 439.12 412.932C437.825 410.801 437.006 406.406 442.978 398.238C442.978 398.238 445.94 396.221 448.716 391.191C448.716 391.191 452.21 392.09 454.288 394.254Z" fill="#1C3F70"/>
</g>
<mask id="mask17_2_2" style="mask-type:luminance" maskUnits="userSpaceOnUse" x="0" y="0" width="602" height="482">
<path fill-rule="evenodd" clip-rule="evenodd" d="M0 -2.31266e-05V482H602V-2.31266e-05H0Z" fill="white"/>
</mask>
<g mask="url(#mask17_2_2)">
<path d="M438.201 407.719C438.99 407.921 439.532 406.827 442.123 407.582C442.357 407.654 442.605 407.521 442.677 407.288C442.521 405.62 436.594 406.692 438.201 407.719Z" fill="#E8BFA5"/>
</g>
<mask id="mask18_2_2" style="mask-type:luminance" maskUnits="userSpaceOnUse" x="0" y="0" width="602" height="482">
<path fill-rule="evenodd" clip-rule="evenodd" d="M0 -2.31266e-05V482H602V-2.31266e-05H0Z" fill="white"/>
</mask>
<g mask="url(#mask18_2_2)">
<path d="M439.215 404.593C439.33 404.661 439.477 404.675 439.612 404.617C439.631 404.608 441.731 403.735 443.944 404.629C444.474 404.853 444.813 404.012 444.276 403.805C441.709 402.766 439.359 403.759 439.26 403.8C438.928 403.933 438.904 404.427 439.215 404.593Z" fill="#E8BFA5"/>
</g>
<mask id="mask19_2_2" style="mask-type:luminance" maskUnits="userSpaceOnUse" x="0" y="0" width="602" height="482">
<path fill-rule="evenodd" clip-rule="evenodd" d="M0 -2.31266e-05V482H602V-2.31266e-05H0Z" fill="white"/>
</mask>
<g mask="url(#mask19_2_2)">
<path d="M441.102 401.053C441.69 401.265 443.255 400.296 446.065 401.284C446.6 401.489 446.915 400.638 446.369 400.45C443.513 399.53 440.065 399.896 441.102 401.053Z" fill="#E8BFA5"/>
</g>
<mask id="mask20_2_2" style="mask-type:luminance" maskUnits="userSpaceOnUse" x="0" y="0" width="602" height="482">
<path fill-rule="evenodd" clip-rule="evenodd" d="M0 -2.31266e-05V482H602V-2.31266e-05H0Z" fill="white"/>
</mask>
<g mask="url(#mask20_2_2)">
<path d="M439.101 412.9L454.288 394.254C454.801 394.787 455.225 395.394 455.492 396.086L441.649 413.081C440.967 413.92 439.64 413.836 439.101 412.9Z" fill="#385B95"/>
</g>
<mask id="mask21_2_2" style="mask-type:luminance" maskUnits="userSpaceOnUse" x="0" y="0" width="602" height="482">
<path fill-rule="evenodd" clip-rule="evenodd" d="M0 -2.31266e-05V482H602V-2.31266e-05H0Z" fill="white"/>
</mask>
<g mask="url(#mask21_2_2)">
<path d="M374.027 416.337L395.731 416.099C396.087 414.937 394.962 409.7 395.148 407.76C395.155 406.943 395.362 402.475 395.439 401.66L393.814 389.405L384.247 389.511L386.436 405.55C386.696 407.454 385.569 409.269 383.751 409.886C379.763 411.452 375.212 410.772 372.66 413.92C371.997 414.978 372.78 416.352 374.027 416.337Z" fill="#F99370"/>
</g>
<mask id="mask22_2_2" style="mask-type:luminance" maskUnits="userSpaceOnUse" x="0" y="0" width="602" height="482">
<path fill-rule="evenodd" clip-rule="evenodd" d="M0 -2.31266e-05V482H602V-2.31266e-05H0Z" fill="white"/>
</mask>
<g mask="url(#mask22_2_2)">
<path d="M396.367 414.002C396.287 414.737 396.092 415.453 395.731 416.099L373.816 416.34C372.751 416.352 371.969 415.311 372.311 414.301C373.117 411.941 375.968 408.5 386.063 407.859C386.063 407.859 389.511 408.844 395.151 407.76C395.151 407.76 396.699 411.021 396.367 414.002Z" fill="#1C3F70"/>
</g>
<mask id="mask23_2_2" style="mask-type:luminance" maskUnits="userSpaceOnUse" x="0" y="0" width="602" height="482">
<path fill-rule="evenodd" clip-rule="evenodd" d="M0 -2.31266e-05V482H602V-2.31266e-05H0Z" fill="white"/>
</mask>
<g mask="url(#mask23_2_2)">
<path d="M378.752 413.457C379.06 413.462 379.289 413.125 379.162 412.84C378.184 410.5 376.397 409.794 376.32 409.765C375.788 409.553 375.463 410.397 376.002 410.594C376.07 410.623 377.519 411.214 378.343 413.182C378.415 413.354 378.579 413.457 378.752 413.457Z" fill="#E8BFA5"/>
</g>
<mask id="mask24_2_2" style="mask-type:luminance" maskUnits="userSpaceOnUse" x="0" y="0" width="602" height="482">
<path fill-rule="evenodd" clip-rule="evenodd" d="M0 -2.31266e-05V482H602V-2.31266e-05H0Z" fill="white"/>
</mask>
<g mask="url(#mask24_2_2)">
<path d="M382.198 413.002C382.492 413.006 382.718 412.703 382.622 412.421C381.808 409.473 377.955 407.297 379.01 409.358C379.036 409.37 381.047 410.423 381.776 412.693C381.837 412.881 382.01 413.002 382.198 413.002Z" fill="#E8BFA5"/>
</g>
<mask id="mask25_2_2" style="mask-type:luminance" maskUnits="userSpaceOnUse" x="0" y="0" width="602" height="482">
<path fill-rule="evenodd" clip-rule="evenodd" d="M0 -2.31266e-05V482H602V-2.31266e-05H0Z" fill="white"/>
</mask>
<g mask="url(#mask25_2_2)">
<path d="M386.118 412.476C386.419 412.481 386.645 412.163 386.537 411.881C385.576 409.213 383.469 407.83 383.38 407.772C382.903 407.454 382.41 408.211 382.899 408.517C382.927 408.536 384.849 409.813 385.701 412.182C385.766 412.363 385.937 412.476 386.118 412.476Z" fill="#E8BFA5"/>
</g>
<mask id="mask26_2_2" style="mask-type:luminance" maskUnits="userSpaceOnUse" x="0" y="0" width="602" height="482">
<path fill-rule="evenodd" clip-rule="evenodd" d="M0 -2.31266e-05V482H602V-2.31266e-05H0Z" fill="white"/>
</mask>
<g mask="url(#mask26_2_2)">
<path d="M372.323 414.265L396.366 414.002C396.287 414.737 396.092 415.453 395.731 416.099L373.815 416.34C372.737 416.354 371.949 415.279 372.323 414.265Z" fill="#385B95"/>
</g>
<mask id="mask27_2_2" style="mask-type:luminance" maskUnits="userSpaceOnUse" x="0" y="0" width="602" height="482">
<path fill-rule="evenodd" clip-rule="evenodd" d="M0 -2.31266e-05V482H602V-2.31266e-05H0Z" fill="white"/>
</mask>
<g mask="url(#mask27_2_2)">
<path d="M390.57 215.709C390.566 215.868 390.558 216.029 390.539 216.186C390.315 216.073 390.404 221.8 390.888 225.908C387.243 228.122 382.85 227.864 382.044 227.796C381.338 222.604 381.251 217.808 381.661 214.741C382.624 209.519 390.749 210.41 390.57 215.709Z" fill="#E47C60"/>
</g>
<mask id="mask28_2_2" style="mask-type:luminance" maskUnits="userSpaceOnUse" x="0" y="0" width="602" height="482">
<path fill-rule="evenodd" clip-rule="evenodd" d="M0 -2.31266e-05V482H602V-2.31266e-05H0Z" fill="white"/>
</mask>
<g mask="url(#mask28_2_2)">
<path d="M396.472 212.571C395.762 216.611 394.329 221.154 391.095 223.786H391.09C389.785 224.84 388.201 225.501 386.53 225.805C377.138 228.375 366.093 217.074 373.627 209.276C376.344 206.836 376.975 202.452 379.149 200.018C382.32 195.55 389.137 195.883 392.769 199.616C396.048 202.991 397.12 207.594 396.472 212.571Z" fill="#F99370"/>
</g>
<mask id="mask29_2_2" style="mask-type:luminance" maskUnits="userSpaceOnUse" x="0" y="0" width="602" height="482">
<path fill-rule="evenodd" clip-rule="evenodd" d="M0 -2.31266e-05V482H602V-2.31266e-05H0Z" fill="white"/>
</mask>
<g mask="url(#mask29_2_2)">
<path d="M381.066 209.851C380.705 209.142 381.827 208.593 382.166 209.312C382.525 210.021 381.405 210.57 381.066 209.851Z" fill="#C16256"/>
</g>
<mask id="mask30_2_2" style="mask-type:luminance" maskUnits="userSpaceOnUse" x="0" y="0" width="602" height="482">
<path fill-rule="evenodd" clip-rule="evenodd" d="M0 -2.31266e-05V482H602V-2.31266e-05H0Z" fill="white"/>
</mask>
<g mask="url(#mask30_2_2)">
<path d="M375.927 208.911C375.569 208.202 376.691 207.652 377.028 208.372C377.389 209.081 376.267 209.63 375.927 208.911Z" fill="#C16256"/>
</g>
<mask id="mask31_2_2" style="mask-type:luminance" maskUnits="userSpaceOnUse" x="0" y="0" width="602" height="482">
<path fill-rule="evenodd" clip-rule="evenodd" d="M0 -2.31266e-05V482H602V-2.31266e-05H0Z" fill="white"/>
</mask>
<g mask="url(#mask31_2_2)">
<path d="M385.393 404.639C392.784 406.073 398.129 401.696 398.129 401.696C397.691 400.176 397.282 398.682 396.889 397.161H396.887C383.291 345.346 397.527 318.098 397.527 318.098C400.535 344.881 407.679 371.128 433.498 394.254C434.584 395.228 435.706 396.197 436.86 397.161C442.68 395.862 448.079 386.258 448.079 386.258C447.171 385.19 446.299 384.118 445.468 383.045C416.909 346.257 431.35 306.853 418.299 282.488C411.359 269.532 383.869 277.642 373.406 289.754C355.852 344.936 376.18 387.114 385.393 404.639Z" fill="#9357DF"/>
</g>
<mask id="mask32_2_2" style="mask-type:luminance" maskUnits="userSpaceOnUse" x="0" y="0" width="602" height="482">
<path fill-rule="evenodd" clip-rule="evenodd" d="M0 -2.31266e-05V482H602V-2.31266e-05H0Z" fill="white"/>
</mask>
<g mask="url(#mask32_2_2)">
<path d="M377.445 214.242C377.823 214.25 378.649 214.405 378.634 213.892C378.598 213.769 378.468 213.7 378.345 213.738C377.565 213.975 376.469 213.569 376.325 213.216C376.274 213.091 376.443 212.971 376.592 212.892C377.902 212.258 379.638 208.625 378.437 209.459C378.429 209.483 377.543 211.871 376.378 212.481C375.061 213.363 376.412 214.079 377.445 214.242Z" fill="#C16256"/>
</g>
<mask id="mask33_2_2" style="mask-type:luminance" maskUnits="userSpaceOnUse" x="0" y="0" width="602" height="482">
<path fill-rule="evenodd" clip-rule="evenodd" d="M0 -2.31266e-05V482H602V-2.31266e-05H0Z" fill="white"/>
</mask>
<g mask="url(#mask33_2_2)">
<path d="M439.884 392.056L440.717 391.271C440.491 391.03 418.031 367.036 411.679 345.842C405.312 324.605 406.02 289.682 406.027 289.333L404.884 289.306C404.874 289.658 404.164 324.76 410.581 346.172C417.013 367.629 439.658 391.815 439.884 392.056Z" fill="#753FCC"/>
</g>
<mask id="mask34_2_2" style="mask-type:luminance" maskUnits="userSpaceOnUse" x="0" y="0" width="602" height="482">
<path fill-rule="evenodd" clip-rule="evenodd" d="M0 -2.31266e-05V482H602V-2.31266e-05H0Z" fill="white"/>
</mask>
<g mask="url(#mask34_2_2)">
<path d="M396.473 212.571C395.762 216.611 394.33 221.154 391.096 223.786H391.091C392.894 221.611 394.069 216.704 394.069 216.704L393.263 214.502C379.28 209.762 380.645 198.49 380.645 198.49C389.704 192.185 398.452 203.326 396.473 212.571Z" fill="#E47C60"/>
</g>
<mask id="mask35_2_2" style="mask-type:luminance" maskUnits="userSpaceOnUse" x="0" y="0" width="602" height="482">
<path fill-rule="evenodd" clip-rule="evenodd" d="M0 -2.31266e-05V482H602V-2.31266e-05H0Z" fill="white"/>
</mask>
<g mask="url(#mask35_2_2)">
<path d="M382.152 197.507C382.152 197.507 380.861 208.624 393.371 213.375L397.92 210.948C402.444 202.369 394.654 189.572 382.152 197.507Z" fill="#1C3F70"/>
</g>
<mask id="mask36_2_2" style="mask-type:luminance" maskUnits="userSpaceOnUse" x="0" y="0" width="602" height="482">
<path fill-rule="evenodd" clip-rule="evenodd" d="M0 -2.31266e-05V482H602V-2.31266e-05H0Z" fill="white"/>
</mask>
<g mask="url(#mask36_2_2)">
<path d="M396.877 194.291C393.809 204.85 381.521 201.474 384.269 190.828C387.336 180.269 399.627 183.644 396.877 194.291Z" fill="#1C3F70"/>
</g>
<mask id="mask37_2_2" style="mask-type:luminance" maskUnits="userSpaceOnUse" x="0" y="0" width="602" height="482">
<path fill-rule="evenodd" clip-rule="evenodd" d="M0 -2.31266e-05V482H602V-2.31266e-05H0Z" fill="white"/>
</mask>
<g mask="url(#mask37_2_2)">
<path d="M399.013 214.654C398.033 219.22 392.287 217.918 393.371 213.375C394.351 208.809 400.094 210.111 399.013 214.654Z" fill="#F99370"/>
</g>
<mask id="mask38_2_2" style="mask-type:luminance" maskUnits="userSpaceOnUse" x="0" y="0" width="602" height="482">
<path fill-rule="evenodd" clip-rule="evenodd" d="M0 -2.31266e-05V482H602V-2.31266e-05H0Z" fill="white"/>
</mask>
<g mask="url(#mask38_2_2)">
<path d="M397.513 215.582C398.478 214.596 398.132 212.58 397.638 212.227C396.733 211.486 395.09 211.857 395.206 212.321C395.493 212.785 396.434 211.819 397.32 212.563C398.228 213.254 396.971 215.189 397.513 215.582Z" fill="#C16256"/>
</g>
<mask id="mask39_2_2" style="mask-type:luminance" maskUnits="userSpaceOnUse" x="0" y="0" width="602" height="482">
<path fill-rule="evenodd" clip-rule="evenodd" d="M0 -2.31266e-05V482H602V-2.31266e-05H0Z" fill="white"/>
</mask>
<g mask="url(#mask39_2_2)">
<path d="M395.352 215.226C395.827 215.207 396.027 213.486 397.85 213.328C397.977 213.321 398.076 213.212 398.069 213.084C396.804 212.103 394.486 215.31 395.352 215.226Z" fill="#C16256"/>
</g>
<mask id="mask40_2_2" style="mask-type:luminance" maskUnits="userSpaceOnUse" x="0" y="0" width="602" height="482">
<path fill-rule="evenodd" clip-rule="evenodd" d="M0 -2.31266e-05V482H602V-2.31266e-05H0Z" fill="white"/>
</mask>
<g mask="url(#mask40_2_2)">
<path d="M396.448 216.74C396.448 217.416 395.389 217.4 395.408 216.725C395.408 216.05 396.468 216.065 396.448 216.74Z" fill="#F4D4BD"/>
</g>
<mask id="mask41_2_2" style="mask-type:luminance" maskUnits="userSpaceOnUse" x="0" y="0" width="602" height="482">
<path fill-rule="evenodd" clip-rule="evenodd" d="M0 -2.31266e-05V482H602V-2.31266e-05H0Z" fill="white"/>
</mask>
<g mask="url(#mask41_2_2)">
<path d="M398.129 401.699C398.129 401.699 392.783 406.073 385.393 404.639C385.393 404.639 384.57 403.287 383.265 400.766C383.265 400.766 392.138 401.602 396.887 397.161H396.889C397.277 398.653 397.689 400.164 398.129 401.699Z" fill="#753FCC"/>
</g>
<mask id="mask42_2_2" style="mask-type:luminance" maskUnits="userSpaceOnUse" x="0" y="0" width="602" height="482">
<path fill-rule="evenodd" clip-rule="evenodd" d="M0 -2.31266e-05V482H602V-2.31266e-05H0Z" fill="white"/>
</mask>
<g mask="url(#mask42_2_2)">
<path d="M396.889 397.161C397.024 397.686 397.164 398.211 397.306 398.742H394.662C385.405 370.991 383.787 325.285 397.527 318.101C397.527 318.101 383.291 345.348 396.887 397.161H396.889Z" fill="#753FCC"/>
</g>
<mask id="mask43_2_2" style="mask-type:luminance" maskUnits="userSpaceOnUse" x="0" y="0" width="602" height="482">
<path fill-rule="evenodd" clip-rule="evenodd" d="M0 -2.31266e-05V482H602V-2.31266e-05H0Z" fill="white"/>
</mask>
<g mask="url(#mask43_2_2)">
<path d="M388.218 403.075C380.95 386.492 376.103 370.301 373.808 354.954C371.971 342.666 371.759 330.888 373.177 319.944C375.595 301.277 382.029 291.359 382.092 291.261L382.937 291.82C382.874 291.916 376.549 301.686 374.172 320.147C371.973 337.195 372.79 365.351 389.145 402.668L388.218 403.075Z" fill="#753FCC"/>
</g>
<mask id="mask44_2_2" style="mask-type:luminance" maskUnits="userSpaceOnUse" x="0" y="0" width="602" height="482">
<path fill-rule="evenodd" clip-rule="evenodd" d="M0 -2.31266e-05V482H602V-2.31266e-05H0Z" fill="white"/>
</mask>
<g mask="url(#mask44_2_2)">
<path d="M371.131 262.948C373.05 268.585 375.963 274.494 372.361 285.657C371.959 288.629 373.408 289.754 373.408 289.754C387.312 294.401 407.128 290.174 419.016 284.472C425.826 278.921 416.526 268.373 415.982 264.755C410.183 226.177 397.529 227.839 391.237 227.839C389.164 230.245 384.028 234.217 382.277 230.019C377.993 231.861 375.934 241.451 373.567 245.172C371.121 249.045 370.073 252.165 369.835 254.915C369.58 257.853 370.252 260.374 371.131 262.948Z" fill="#3A72AA"/>
</g>
<mask id="mask45_2_2" style="mask-type:luminance" maskUnits="userSpaceOnUse" x="0" y="0" width="602" height="482">
<path fill-rule="evenodd" clip-rule="evenodd" d="M0 -2.31266e-05V482H602V-2.31266e-05H0Z" fill="white"/>
</mask>
<g mask="url(#mask45_2_2)">
<path d="M378.302 215.967C377.895 215.967 377.618 215.851 377.594 215.841C377.452 215.779 377.384 215.613 377.447 215.469C377.509 215.326 377.673 215.26 377.818 215.322C377.856 215.338 378.704 215.673 379.58 214.839C379.691 214.73 379.872 214.735 379.978 214.848C380.086 214.961 380.081 215.14 379.97 215.248C379.364 215.826 378.752 215.967 378.302 215.967Z" fill="#C16256"/>
</g>
<mask id="mask46_2_2" style="mask-type:luminance" maskUnits="userSpaceOnUse" x="0" y="0" width="602" height="482">
<path fill-rule="evenodd" clip-rule="evenodd" d="M0 -2.31266e-05V482H602V-2.31266e-05H0Z" fill="white"/>
</mask>
<g mask="url(#mask46_2_2)">
<path d="M384.03 207.672C383.996 207.672 383.96 207.666 383.924 207.652L381.309 206.592C381.165 206.534 381.095 206.369 381.155 206.224C381.213 206.079 381.379 206.009 381.521 206.068L384.136 207.127C384.281 207.186 384.35 207.351 384.293 207.495C384.249 207.606 384.143 207.672 384.03 207.672Z" fill="#C16256"/>
</g>
<mask id="mask47_2_2" style="mask-type:luminance" maskUnits="userSpaceOnUse" x="0" y="0" width="602" height="482">
<path fill-rule="evenodd" clip-rule="evenodd" d="M0 -2.31266e-05V482H602V-2.31266e-05H0Z" fill="white"/>
</mask>
<g mask="url(#mask47_2_2)">
<path d="M378.841 206.292H376.479C376.322 206.292 376.197 206.166 376.197 206.009C376.197 205.853 376.322 205.726 376.479 205.726H378.841C378.998 205.726 379.123 205.853 379.123 206.009C379.123 206.166 378.998 206.292 378.841 206.292Z" fill="#C16256"/>
</g>
<mask id="mask48_2_2" style="mask-type:luminance" maskUnits="userSpaceOnUse" x="0" y="0" width="602" height="482">
<path fill-rule="evenodd" clip-rule="evenodd" d="M0 -2.31266e-05V482H602V-2.31266e-05H0Z" fill="white"/>
</mask>
<g mask="url(#mask48_2_2)">
<path d="M406.697 235.739C408.98 246.145 410.675 257.593 406.357 267.797C398.91 282.691 379.568 283.124 365.405 279.693C363.16 279.288 360.449 278.471 361.13 275.586C362.079 272.369 365.84 273.827 368.282 273.598C394.409 272.766 398.657 264.399 391.218 240.288C388.293 230.143 403.682 225.626 406.697 235.739Z" fill="#F99370"/>
</g>
<mask id="mask49_2_2" style="mask-type:luminance" maskUnits="userSpaceOnUse" x="0" y="0" width="602" height="482">
<path fill-rule="evenodd" clip-rule="evenodd" d="M0 -2.31266e-05V482H602V-2.31266e-05H0Z" fill="white"/>
</mask>
<g mask="url(#mask49_2_2)">
<path d="M364.649 279.647C364.649 279.647 366.231 277.283 364.586 273.448C364.586 273.448 365.532 273.055 366.397 273.564C366.397 273.564 368.186 276.456 366.341 280.061C366.341 280.061 365.539 280.288 364.649 279.647Z" fill="#10315B"/>
</g>
<mask id="mask50_2_2" style="mask-type:luminance" maskUnits="userSpaceOnUse" x="0" y="0" width="602" height="482">
<path fill-rule="evenodd" clip-rule="evenodd" d="M0 -2.31266e-05V482H602V-2.31266e-05H0Z" fill="white"/>
</mask>
<g mask="url(#mask50_2_2)">
<path d="M388.141 236.356C387.871 238.938 389.164 242.154 391.061 246.319C392.961 250.486 394.454 255.566 392.725 259.798C390.999 264.032 387.914 267.857 382.388 268.84C377.333 269.739 372.094 270.831 371.518 273.448C371.518 273.448 372.2 277.526 370.398 280.695C370.398 280.695 372.472 287.245 389.581 285.122C406.692 282.997 414.739 264.425 415.703 256.424C417.193 244.07 410.398 232.454 401.187 228.763C391.974 225.072 388.557 232.392 388.141 236.356Z" fill="#23649A"/>
</g>
<mask id="mask51_2_2" style="mask-type:luminance" maskUnits="userSpaceOnUse" x="0" y="0" width="602" height="482">
<path fill-rule="evenodd" clip-rule="evenodd" d="M0 -2.31266e-05V482H602V-2.31266e-05H0Z" fill="white"/>
</mask>
<g mask="url(#mask51_2_2)">
<path d="M433.498 394.254C434.584 395.228 435.706 396.197 436.86 397.161C442.68 395.862 448.079 386.258 448.079 386.258C447.171 385.19 446.299 384.118 445.468 383.045C445.468 383.045 440.722 391.9 433.498 394.254Z" fill="#753FCC"/>
</g>
<mask id="mask52_2_2" style="mask-type:luminance" maskUnits="userSpaceOnUse" x="0" y="0" width="602" height="482">
<path fill-rule="evenodd" clip-rule="evenodd" d="M0 -2.31266e-05V482H602V-2.31266e-05H0Z" fill="white"/>
</mask>
<g mask="url(#mask52_2_2)">
<path d="M369.255 302.889L375.482 298.683L306.661 196.629L300.434 200.834L369.255 302.889Z" fill="#EB5648"/>
</g>
<mask id="mask53_2_2" style="mask-type:luminance" maskUnits="userSpaceOnUse" x="0" y="0" width="602" height="482">
<path fill-rule="evenodd" clip-rule="evenodd" d="M0 -2.31266e-05V482H602V-2.31266e-05H0Z" fill="white"/>
</mask>
<g mask="url(#mask53_2_2)">
<path d="M369.255 302.889L375.482 298.683L339.458 245.266L333.233 249.471L369.255 302.889Z" fill="#CD3831"/>
</g>
<mask id="mask54_2_2" style="mask-type:luminance" maskUnits="userSpaceOnUse" x="0" y="0" width="602" height="482">
<path fill-rule="evenodd" clip-rule="evenodd" d="M0 -2.31266e-05V482H602V-2.31266e-05H0Z" fill="white"/>
</mask>
<g mask="url(#mask54_2_2)">
<path d="M278.016 206.682C276.759 206.682 275.507 206.629 274.257 206.525C276.655 198.246 280.496 189.672 285.146 181.694L319.166 165.693L323.07 163.859L323.072 163.857C322.352 177.394 315.578 190.457 303.555 198.728L302.905 199.167C295.25 204.243 286.586 206.682 278.016 206.682ZM254.824 200.299C253.517 199.518 252.243 198.668 251.01 197.75V197.749L254.933 195.905L255.053 195.848C254.933 197.297 254.856 198.776 254.824 200.299ZM236.943 180.369C235.962 178.24 235.159 176.063 234.531 173.854L234.533 173.853L237.989 172.228L268.798 157.737C266.901 161.156 265.058 164.521 263.368 167.939L240.347 178.768L236.943 180.369ZM311.244 145.422C312.804 142.408 314.165 139.287 315.33 136.089C316.611 137.976 317.729 139.925 318.689 141.92L315.292 143.518L311.244 145.422Z" fill="#E4F0FF"/>
</g>
<mask id="mask55_2_2" style="mask-type:luminance" maskUnits="userSpaceOnUse" x="0" y="0" width="602" height="482">
<path fill-rule="evenodd" clip-rule="evenodd" d="M0 -2.31266e-05V482H602V-2.31266e-05H0Z" fill="white"/>
</mask>
<g mask="url(#mask55_2_2)">
<path d="M274.257 206.525C267.435 205.957 260.772 203.848 254.824 200.299C254.856 198.776 254.933 197.297 255.053 195.848L285.146 181.693C280.496 189.672 276.655 198.246 274.257 206.525ZM263.368 167.939C265.058 164.521 266.9 161.156 268.798 157.737L311.757 137.533L315.207 135.91C315.248 135.97 315.289 136.029 315.33 136.089C314.165 139.287 312.804 142.408 311.244 145.422L263.368 167.939Z" fill="#ACB8E6"/>
</g>
<mask id="mask56_2_2" style="mask-type:luminance" maskUnits="userSpaceOnUse" x="0" y="0" width="602" height="482">
<path fill-rule="evenodd" clip-rule="evenodd" d="M0 -2.31266e-05V482H602V-2.31266e-05H0Z" fill="white"/>
</mask>
<g mask="url(#mask56_2_2)">
<path d="M302.905 199.167L303.555 198.728C303.553 198.729 303.55 198.731 303.548 198.732C303.333 198.88 303.119 199.024 302.905 199.167Z" fill="#F29A90"/>
</g>
<mask id="mask57_2_2" style="mask-type:luminance" maskUnits="userSpaceOnUse" x="0" y="0" width="602" height="482">
<path fill-rule="evenodd" clip-rule="evenodd" d="M0 -2.31266e-05V482H602V-2.31266e-05H0Z" fill="white"/>
</mask>
<g mask="url(#mask57_2_2)">
<path d="M232.859 159.525C233.366 148.044 238.227 136.869 246.953 128.634C243.218 138.07 240.188 148.11 236.842 157.652L236.768 157.687L232.861 159.524L232.859 159.525Z" fill="white"/>
</g>
<mask id="mask58_2_2" style="mask-type:luminance" maskUnits="userSpaceOnUse" x="0" y="0" width="602" height="482">
<path fill-rule="evenodd" clip-rule="evenodd" d="M0 -2.31266e-05V482H602V-2.31266e-05H0Z" fill="white"/>
</mask>
<g mask="url(#mask58_2_2)">
<path d="M236.841 157.652C240.187 148.11 243.217 138.07 246.952 128.634C248.628 127.053 250.446 125.581 252.404 124.235C260.216 118.863 269.123 116.285 277.936 116.285C280.484 116.285 283.024 116.501 285.528 116.926C285.391 118.807 285.177 120.767 284.885 122.797C283.267 128.198 281.348 133.111 279.275 137.694L236.841 157.652Z" fill="#E4F0FF"/>
</g>
<mask id="mask59_2_2" style="mask-type:luminance" maskUnits="userSpaceOnUse" x="0" y="0" width="602" height="482">
<path fill-rule="evenodd" clip-rule="evenodd" d="M0 -2.31266e-05V482H602V-2.31266e-05H0Z" fill="white"/>
</mask>
<g mask="url(#mask59_2_2)">
<path d="M279.275 137.694C281.348 133.111 283.267 128.198 284.886 122.797C285.177 120.767 285.391 118.807 285.528 116.926C292.618 118.13 299.415 121.017 305.276 125.468L305.274 125.469L301.378 127.301L301.376 127.301L279.275 137.694Z" fill="#ACB8E6"/>
</g>
<mask id="mask60_2_2" style="mask-type:luminance" maskUnits="userSpaceOnUse" x="0" y="0" width="602" height="482">
<path fill-rule="evenodd" clip-rule="evenodd" d="M0 -2.31266e-05V482H602V-2.31266e-05H0Z" fill="white"/>
</mask>
<g mask="url(#mask60_2_2)">
<path d="M230.545 173.444C230.397 172.855 230.26 172.264 230.135 171.672L231.323 171.752C231.067 172.322 230.809 172.883 230.545 173.444ZM229.863 170.288C229.323 167.308 229.065 164.299 229.081 161.302L232.859 159.525C232.834 160.096 232.82 160.668 232.816 161.24L230.37 161.102C230.193 164.545 230.026 167.566 229.863 170.288ZM232.432 169.212C232.557 167.061 232.686 164.726 232.819 162.153C232.844 163.894 232.968 165.637 233.195 167.374C232.944 167.99 232.689 168.604 232.432 169.212Z" fill="white"/>
</g>
<mask id="mask61_2_2" style="mask-type:luminance" maskUnits="userSpaceOnUse" x="0" y="0" width="602" height="482">
<path fill-rule="evenodd" clip-rule="evenodd" d="M0 -2.31266e-05V482H602V-2.31266e-05H0Z" fill="white"/>
</mask>
<g mask="url(#mask61_2_2)">
<path d="M231.323 171.753L230.135 171.672C230.038 171.211 229.947 170.75 229.863 170.288C230.026 167.566 230.193 164.545 230.37 161.102L232.816 161.24C232.814 161.545 232.815 161.848 232.819 162.153C232.685 164.726 232.557 167.061 232.432 169.212C232.069 170.068 231.7 170.914 231.323 171.753Z" fill="#E9EFFF"/>
</g>
<mask id="mask62_2_2" style="mask-type:luminance" maskUnits="userSpaceOnUse" x="0" y="0" width="602" height="482">
<path fill-rule="evenodd" clip-rule="evenodd" d="M0 -2.31266e-05V482H602V-2.31266e-05H0Z" fill="white"/>
</mask>
<g mask="url(#mask62_2_2)">
<path d="M231.099 175.468C230.899 174.796 230.714 174.121 230.544 173.444C230.808 172.883 231.066 172.322 231.323 171.753C231.7 170.914 232.069 170.068 232.432 169.212C232.689 168.604 232.944 167.99 233.195 167.374C233.479 169.55 233.923 171.717 234.531 173.854L231.099 175.468ZM315.431 135.804C315.922 134.445 316.373 133.079 316.792 131.694C317.304 132.366 317.805 133.055 318.289 133.761C318.41 133.938 318.53 134.115 318.648 134.291L315.431 135.804Z" fill="#E4F0FF"/>
</g>
<mask id="mask63_2_2" style="mask-type:luminance" maskUnits="userSpaceOnUse" x="0" y="0" width="602" height="482">
<path fill-rule="evenodd" clip-rule="evenodd" d="M0 -2.31266e-05V482H602V-2.31266e-05H0Z" fill="white"/>
</mask>
<g mask="url(#mask63_2_2)">
<path d="M315.207 135.91C315.202 135.904 315.197 135.896 315.192 135.89C312.385 131.798 309.021 128.313 305.276 125.468L309.064 123.684C311.889 126.007 314.487 128.682 316.791 131.694C316.372 133.079 315.922 134.445 315.431 135.804L315.207 135.91Z" fill="#ACB8E6"/>
</g>
<mask id="mask64_2_2" style="mask-type:luminance" maskUnits="userSpaceOnUse" x="0" y="0" width="602" height="482">
<path fill-rule="evenodd" clip-rule="evenodd" d="M0 -2.31266e-05V482H602V-2.31266e-05H0Z" fill="white"/>
</mask>
<g mask="url(#mask64_2_2)">
<path d="M233.195 167.374C232.968 165.637 232.844 163.894 232.819 162.153C232.835 161.853 232.851 161.55 232.866 161.243L232.816 161.24C232.82 160.668 232.834 160.096 232.859 159.525L232.86 159.524L236.768 157.687L236.841 157.652C235.679 160.968 234.478 164.223 233.195 167.374Z" fill="white"/>
</g>
<mask id="mask65_2_2" style="mask-type:luminance" maskUnits="userSpaceOnUse" x="0" y="0" width="602" height="482">
<path fill-rule="evenodd" clip-rule="evenodd" d="M0 -2.31266e-05V482H602V-2.31266e-05H0Z" fill="white"/>
</mask>
<g mask="url(#mask65_2_2)">
<path d="M232.819 162.153C232.815 161.848 232.814 161.545 232.816 161.241L232.866 161.243C232.851 161.55 232.835 161.853 232.819 162.153Z" fill="#F2F6FF"/>
</g>
<mask id="mask66_2_2" style="mask-type:luminance" maskUnits="userSpaceOnUse" x="0" y="0" width="602" height="482">
<path fill-rule="evenodd" clip-rule="evenodd" d="M0 -2.31266e-05V482H602V-2.31266e-05H0Z" fill="white"/>
</mask>
<g mask="url(#mask66_2_2)">
<path d="M234.531 173.854C233.923 171.717 233.479 169.549 233.195 167.374C234.478 164.223 235.679 160.968 236.841 157.652L279.275 137.694C275.978 144.99 272.292 151.45 268.798 157.737L237.988 172.227L234.533 173.853L234.531 173.854Z" fill="#EFF6FF"/>
</g>
<mask id="mask67_2_2" style="mask-type:luminance" maskUnits="userSpaceOnUse" x="0" y="0" width="602" height="482">
<path fill-rule="evenodd" clip-rule="evenodd" d="M0 -2.31266e-05V482H602V-2.31266e-05H0Z" fill="white"/>
</mask>
<g mask="url(#mask67_2_2)">
<path d="M268.798 157.737C272.292 151.45 275.979 144.99 279.275 137.694L301.376 127.301L301.378 127.301L305.274 125.469L305.277 125.468C309.021 128.313 312.385 131.798 315.193 135.89C315.198 135.896 315.202 135.904 315.207 135.91L311.757 137.533L268.798 157.737Z" fill="#CDD3EF"/>
</g>
<mask id="mask68_2_2" style="mask-type:luminance" maskUnits="userSpaceOnUse" x="0" y="0" width="602" height="482">
<path fill-rule="evenodd" clip-rule="evenodd" d="M0 -2.31266e-05V482H602V-2.31266e-05H0Z" fill="white"/>
</mask>
<g mask="url(#mask68_2_2)">
<path d="M247.203 199.54C243.625 196.645 240.398 193.191 237.663 189.207C236.062 186.876 234.691 184.452 233.546 181.966L236.942 180.369L236.943 180.368C238.004 182.671 239.275 184.916 240.758 187.077C243.651 191.29 247.128 194.859 251.01 197.75L247.203 199.54ZM323.072 163.857C323.467 156.451 322.048 148.902 318.689 141.92L322.092 140.319C325.364 147.118 327.002 154.526 326.896 162.059L323.072 163.857Z" fill="#E4F0FF"/>
</g>
<mask id="mask69_2_2" style="mask-type:luminance" maskUnits="userSpaceOnUse" x="0" y="0" width="602" height="482">
<path fill-rule="evenodd" clip-rule="evenodd" d="M0 -2.31266e-05V482H602V-2.31266e-05H0Z" fill="white"/>
</mask>
<g mask="url(#mask69_2_2)">
<path d="M251.01 197.75C247.128 194.859 243.651 191.29 240.759 187.078C239.275 184.917 238.004 182.671 236.943 180.369L240.347 178.768L263.368 167.939C259.193 176.391 255.944 185.168 255.053 195.848L254.933 195.905L251.01 197.749V197.75ZM285.146 181.694C289.945 173.462 295.609 165.864 301.446 159.872C305.294 155.479 308.561 150.61 311.244 145.422L315.292 143.518L318.689 141.92C322.049 148.902 323.467 156.451 323.072 163.857L323.07 163.859L319.166 165.693L285.146 181.694Z" fill="#EFF6FF"/>
</g>
<mask id="mask70_2_2" style="mask-type:luminance" maskUnits="userSpaceOnUse" x="0" y="0" width="602" height="482">
<path fill-rule="evenodd" clip-rule="evenodd" d="M0 -2.31266e-05V482H602V-2.31266e-05H0Z" fill="white"/>
</mask>
<g mask="url(#mask70_2_2)">
<path d="M255.053 195.848C255.944 185.168 259.192 176.391 263.368 167.939L311.243 145.422C308.561 150.61 305.293 155.479 301.445 159.872C295.608 165.864 289.945 173.462 285.146 181.693L255.053 195.848Z" fill="#CDD3EF"/>
</g>
<mask id="mask71_2_2" style="mask-type:luminance" maskUnits="userSpaceOnUse" x="0" y="0" width="602" height="482">
<path fill-rule="evenodd" clip-rule="evenodd" d="M0 -2.31266e-05V482H602V-2.31266e-05H0Z" fill="white"/>
</mask>
<g mask="url(#mask71_2_2)">
<path d="M315.291 143.517C333.537 181.348 289.355 219.151 254.932 195.905C242.613 187.907 235.185 172.357 236.768 157.687C240.404 116.284 297.337 105.978 315.291 143.517ZM247.203 199.539C273.996 222.864 320.685 206.151 326.067 170.41C334.445 128.563 285.738 96.279 250.278 121.137C223.283 139.038 222.256 180.094 247.203 199.539Z" fill="#CD3831"/>
</g>
<mask id="mask72_2_2" style="mask-type:luminance" maskUnits="userSpaceOnUse" x="0" y="0" width="602" height="482">
<path fill-rule="evenodd" clip-rule="evenodd" d="M0 -2.31266e-05V482H602V-2.31266e-05H0Z" fill="white"/>
</mask>
<g mask="url(#mask72_2_2)">
<path d="M355.803 269.503L357.862 272.557C355.89 273.159 353.805 273.171 353.795 273.183C352.069 272.988 349.078 272.969 349.078 272.969C345.878 274.75 352.049 274.93 352.938 275.333L352.933 275.371C352.933 275.371 353.147 275.478 350.484 275.224C346.87 277.124 352.191 277.393 353.196 277.521L353.203 277.54L352.283 277.724C348.813 279.963 353.208 279.934 354.212 279.726L354.229 279.753C354.212 279.726 353.887 280.1 353.887 280.1C352.309 281.671 354.932 281.977 355.832 281.688C356.552 281.799 360.2 280.936 364.299 278.926C365.643 278.268 364.797 274.169 363.589 273.333C362.454 272.549 360.86 271.532 360.241 271.255C359.543 270.942 357.766 269.091 355.803 269.503Z" fill="#F99370"/>
</g>
<mask id="mask73_2_2" style="mask-type:luminance" maskUnits="userSpaceOnUse" x="0" y="0" width="602" height="482">
<path fill-rule="evenodd" clip-rule="evenodd" d="M0 -2.31266e-05V482H602V-2.31266e-05H0Z" fill="white"/>
</mask>
<g mask="url(#mask73_2_2)">
<path d="M319.113 227.252C316.245 228.851 314.627 224.954 318.212 225.172L318.162 225.198C319.729 224.358 320.601 226.501 319.113 227.252Z" fill="#F99370"/>
</g>
<mask id="mask74_2_2" style="mask-type:luminance" maskUnits="userSpaceOnUse" x="0" y="0" width="602" height="482">
<path fill-rule="evenodd" clip-rule="evenodd" d="M0 -2.31266e-05V482H602V-2.31266e-05H0Z" fill="white"/>
</mask>
<g mask="url(#mask74_2_2)">
<path d="M317.567 225.668C313.998 226.862 313.823 222.279 316.886 223.418C316.813 223.411 317.199 223.396 317.131 223.392C318.853 222.877 319.089 225.255 317.567 225.668Z" fill="#F99370"/>
</g>
<mask id="mask75_2_2" style="mask-type:luminance" maskUnits="userSpaceOnUse" x="0" y="0" width="602" height="482">
<path fill-rule="evenodd" clip-rule="evenodd" d="M0 -2.31266e-05V482H602V-2.31266e-05H0Z" fill="white"/>
</mask>
<g mask="url(#mask75_2_2)">
<path d="M315.894 224.06L314.639 224.083C312.886 224.052 313.546 221.602 315.003 221.671L316.257 221.648C318.01 221.679 317.351 224.129 315.894 224.06Z" fill="#F99370"/>
</g>
<mask id="mask76_2_2" style="mask-type:luminance" maskUnits="userSpaceOnUse" x="0" y="0" width="602" height="482">
<path fill-rule="evenodd" clip-rule="evenodd" d="M0 -2.31266e-05V482H602V-2.31266e-05H0Z" fill="white"/>
</mask>
<g mask="url(#mask76_2_2)">
<path d="M314.658 222.435L313.404 222.458C311.653 222.428 312.31 219.978 313.77 220.047L315.022 220.024C316.775 220.055 316.117 222.505 314.658 222.435Z" fill="#F99370"/>
</g>
<mask id="mask77_2_2" style="mask-type:luminance" maskUnits="userSpaceOnUse" x="0" y="0" width="602" height="482">
<path fill-rule="evenodd" clip-rule="evenodd" d="M0 -2.31266e-05V482H602V-2.31266e-05H0Z" fill="white"/>
</mask>
<g mask="url(#mask77_2_2)">
<path d="M325.995 224.769C325.995 224.769 326.474 219.155 320.808 217.607C317.76 216.774 318.261 219.075 320.214 219.717C322.164 220.358 324.909 223.688 324.909 223.688L325.995 224.769Z" fill="#F99370"/>
</g>
<mask id="mask78_2_2" style="mask-type:luminance" maskUnits="userSpaceOnUse" x="0" y="0" width="602" height="482">
<path fill-rule="evenodd" clip-rule="evenodd" d="M0 -2.31266e-05V482H602V-2.31266e-05H0Z" fill="white"/>
</mask>
<g mask="url(#mask78_2_2)">
<path d="M333.234 416.296L196.437 416.308C196.437 416.308 195.306 408.914 202.499 391.678C206.924 381.072 230.946 368.311 231.364 394.071C237.689 366.074 273.518 359.456 262.756 403.918C262.857 403.697 270.457 387.205 284.002 392.572C297.636 397.973 295.741 409.794 304.458 409.23C313.172 408.669 329.747 397.961 333.234 416.296Z" fill="#9AB1E8"/>
</g>
<mask id="mask79_2_2" style="mask-type:luminance" maskUnits="userSpaceOnUse" x="0" y="0" width="602" height="482">
<path fill-rule="evenodd" clip-rule="evenodd" d="M0 -2.31266e-05V482H602V-2.31266e-05H0Z" fill="white"/>
</mask>
<g mask="url(#mask79_2_2)">
<path d="M317.972 416.308H205.413C205.413 416.308 206.154 392.406 217.089 384.287C227.771 376.358 240.282 387.552 244.044 402.629C248.963 414.935 260.148 395.821 267.943 395.25C269.311 394.946 270.705 394.915 272.121 395.262C279.232 397.007 278.731 410.269 289.03 410.269C300.295 410.269 300.015 404.097 307.935 403.94C317.059 403.762 317.972 416.308 317.972 416.308Z" fill="#AAC1EF"/>
</g>
<mask id="mask80_2_2" style="mask-type:luminance" maskUnits="userSpaceOnUse" x="0" y="0" width="602" height="482">
<path fill-rule="evenodd" clip-rule="evenodd" d="M0 -2.31266e-05V482H602V-2.31266e-05H0Z" fill="white"/>
</mask>
<g mask="url(#mask80_2_2)">
<path d="M208.726 344.647C206.637 342.437 183.313 359.871 181.323 363.58C180.902 359.738 180.027 355.251 178.39 350.308C181.645 350.122 203.744 327.196 201.571 324.979C199.13 323.142 178.925 344.719 177.806 348.616C176.424 344.772 174.576 340.675 172.123 336.405C174.905 336.853 193.593 308.658 190.874 307.13C188.195 305.571 171.121 332.069 171.542 335.412C169.779 332.435 167.726 329.382 165.326 326.273C168.51 324.849 183.596 297.589 180.978 295.941C178.149 294.818 164.334 320.651 164.163 324.798C162.1 322.212 159.655 319.484 157.173 316.917C160.113 314.867 170.799 285.901 167.979 284.645C165.032 283.992 155.46 311.068 155.748 315.414C153.181 312.69 150.795 310.08 148.578 307.586C151.534 305.236 162.029 276.776 159.242 275.478C156.329 274.846 146.953 301.272 147.048 305.853C144.405 302.836 142.02 299.997 139.861 297.329C142.809 295.143 153.41 266.401 150.606 265.127C147.691 264.493 138.306 290.95 138.409 295.519C136.032 292.526 133.958 289.766 132.146 287.238C135.039 285.927 146.153 255.776 143.256 254.655C140.294 253.985 130.606 281.435 131.009 285.636C128.584 282.17 126.685 279.182 125.201 276.663C127.937 275.121 135.712 243.813 132.704 243.034C129.756 242.726 123.372 269.763 123.906 274.398C119.131 266.421 121.344 263.791 117.743 253.009C111.372 231.232 106.677 232.613 113.15 254.366C116.449 265.563 118.183 267.411 121.58 274.251C118.188 270.395 96.3628 256.099 94.5972 258.297C92.6922 260.767 121.188 279.256 123.487 277.651C124.904 280.061 126.696 282.886 128.953 286.135C125.292 282.994 100.138 272.617 98.7226 275.169C97.3577 277.974 128.689 290.598 130.742 288.663C132.505 291.106 134.513 293.762 136.795 296.632C132.393 294.321 106.178 289.301 105.333 292.049C104.934 295.124 135.81 300.754 138.799 299.117C140.866 301.65 143.137 304.337 145.633 307.181C141.467 305.318 113.473 303.711 112.955 306.641C112.874 309.748 144.952 311.206 147.28 309.042C149.507 311.541 151.903 314.153 154.479 316.884C149.773 315.843 122.694 318.568 122.648 321.484C123.262 324.502 153.33 321.164 156.351 318.855C158.809 321.407 161.084 324.017 163.077 326.541C159.909 324.798 129.284 327.734 129.369 330.818C129.525 333.934 162.898 330.288 163.931 327.632C166.199 330.585 168.149 333.484 169.828 336.308C166.332 334.703 136.358 337.583 136.383 340.654C136.799 343.734 168.625 340.205 170.644 337.713C173.038 341.931 174.829 345.965 176.156 349.739C173.083 347.768 142.424 348.231 142.251 351.311C142.421 354.415 174.405 353.453 176.63 351.135C178.202 355.935 179.03 360.276 179.423 363.982C175.701 361.994 146.694 360.276 146.186 363.267C146.375 366.318 175.929 367.667 179.6 365.978C180.382 377.02 177.691 384.173 177.658 384.26L179.458 384.959C179.582 384.641 182.401 377.206 181.503 365.515C184.776 365.855 210.466 347.216 208.726 344.647Z" fill="#9357DF"/>
</g>
<mask id="mask81_2_2" style="mask-type:luminance" maskUnits="userSpaceOnUse" x="0" y="0" width="602" height="482">
<path fill-rule="evenodd" clip-rule="evenodd" d="M0 -2.31266e-05V482H602V-2.31266e-05H0Z" fill="white"/>
</mask>
<g mask="url(#mask81_2_2)">
<path d="M204.706 362.618C205.91 361.331 219.474 371.364 220.638 373.509C220.87 371.282 221.365 368.679 222.299 365.811C220.412 365.713 207.542 352.491 208.795 351.202C210.204 350.13 221.973 362.575 222.632 364.828C223.422 362.599 224.481 360.218 225.89 357.738C224.28 358.005 213.371 341.723 214.942 340.829C216.49 339.918 226.458 355.222 226.224 357.16C227.237 355.432 228.417 353.655 229.799 351.845C227.95 351.031 219.131 335.279 220.643 334.318C222.279 333.66 230.358 348.587 230.469 350.99C231.657 349.486 233.066 347.896 234.496 346.404C232.787 345.223 226.512 328.471 228.142 327.736C229.848 327.348 235.472 343.008 235.317 345.526C236.797 343.941 238.172 342.422 239.449 340.972C237.73 339.62 231.567 323.159 233.178 322.4C234.864 322.024 240.373 337.308 240.331 339.962C241.852 338.207 243.227 336.556 244.47 335.004C242.755 333.744 236.531 317.125 238.152 316.375C239.839 316.002 245.354 331.303 245.305 333.951C246.676 332.209 247.87 330.606 248.91 329.136C247.232 328.384 240.705 310.945 242.38 310.287C244.094 309.892 249.787 325.769 249.565 328.203C250.962 326.189 252.053 324.451 252.905 322.988C251.316 322.101 246.721 303.985 248.462 303.525C250.167 303.337 253.945 318.985 253.649 321.672C256.392 317.035 255.104 315.52 257.158 309.261C260.786 296.625 263.512 297.411 259.823 310.034C257.945 316.532 256.946 317.607 254.998 321.581C256.95 319.335 269.554 310.991 270.585 312.256C271.695 313.683 255.238 324.478 253.9 323.555C253.086 324.955 252.057 326.598 250.757 328.485C252.871 326.656 267.416 320.571 268.242 322.046C269.041 323.668 250.923 331.071 249.729 329.955C248.715 331.377 247.559 332.922 246.244 334.59C248.79 333.24 263.963 330.257 264.461 331.845C264.702 333.626 246.827 336.976 245.091 336.038C243.902 337.511 242.592 339.075 241.154 340.728C243.562 339.639 259.777 338.624 260.086 340.321C260.141 342.121 241.561 343.059 240.206 341.81C238.922 343.266 237.542 344.787 236.057 346.375C238.78 345.758 254.477 347.259 254.514 348.951C254.167 350.701 236.735 348.852 234.978 347.524C233.561 349.009 232.25 350.527 231.103 351.995C232.933 350.978 250.687 352.59 250.646 354.378C250.564 356.183 231.217 354.166 230.611 352.631C229.306 354.347 228.184 356.032 227.22 357.675C229.241 356.735 246.615 358.316 246.611 360.095C246.377 361.881 227.927 359.929 226.75 358.49C225.376 360.941 224.349 363.286 223.591 365.474C225.367 364.322 243.131 364.503 243.242 366.289C243.15 368.086 224.617 367.621 223.321 366.284C222.424 369.07 221.957 371.588 221.74 373.736C223.891 372.574 240.692 371.494 240.995 373.225C240.894 374.994 223.774 375.861 221.643 374.892C221.221 381.293 222.801 385.429 222.82 385.479L221.779 385.889C221.707 385.706 220.052 381.407 220.539 374.632C218.644 374.837 203.705 364.112 204.706 362.618Z" fill="#677CC1"/>
</g>
<mask id="mask82_2_2" style="mask-type:luminance" maskUnits="userSpaceOnUse" x="0" y="0" width="602" height="482">
<path fill-rule="evenodd" clip-rule="evenodd" d="M0 -2.31266e-05V482H602V-2.31266e-05H0Z" fill="white"/>
</mask>
<g mask="url(#mask82_2_2)">
<path d="M200.113 416.231C200.113 416.231 219.827 386.239 260.427 383.855C260.427 383.855 237.479 411.898 200.113 416.231Z" fill="#F49E9E"/>
</g>
<mask id="mask83_2_2" style="mask-type:luminance" maskUnits="userSpaceOnUse" x="0" y="0" width="602" height="482">
<path fill-rule="evenodd" clip-rule="evenodd" d="M0 -2.31266e-05V482H602V-2.31266e-05H0Z" fill="white"/>
</mask>
<g mask="url(#mask83_2_2)">
<path d="M200.569 416.173C200.569 416.173 206.374 386.887 248.214 364.337C248.214 364.337 238.088 395.826 200.569 416.173Z" fill="#F9BFBF"/>
</g>
<mask id="mask84_2_2" style="mask-type:luminance" maskUnits="userSpaceOnUse" x="0" y="0" width="602" height="482">
<path fill-rule="evenodd" clip-rule="evenodd" d="M0 -2.31266e-05V482H602V-2.31266e-05H0Z" fill="white"/>
</mask>
<g mask="url(#mask84_2_2)">
<path d="M200.569 416.173C200.569 416.173 198.857 380.312 230.271 354.46C230.271 354.46 228.222 390.651 200.569 416.173Z" fill="#F49E9E"/>
</g>
<mask id="mask85_2_2" style="mask-type:luminance" maskUnits="userSpaceOnUse" x="0" y="0" width="602" height="482">
<path fill-rule="evenodd" clip-rule="evenodd" d="M0 -2.31266e-05V482H602V-2.31266e-05H0Z" fill="white"/>
</mask>
<g mask="url(#mask85_2_2)">
<path d="M200.569 416.173C200.569 416.173 189.512 379.732 212.009 345.394C212.009 345.394 224.891 393.416 200.569 416.173Z" fill="#F9BFBF"/>
</g>
<mask id="mask86_2_2" style="mask-type:luminance" maskUnits="userSpaceOnUse" x="0" y="0" width="602" height="482">
<path fill-rule="evenodd" clip-rule="evenodd" d="M0 -2.31266e-05V482H602V-2.31266e-05H0Z" fill="white"/>
</mask>
<g mask="url(#mask86_2_2)">
<path d="M200.569 416.173C200.569 416.173 181.687 376.271 192.798 346.074C192.798 346.074 210.134 383.484 200.569 416.173Z" fill="#F49E9E"/>
</g>
<mask id="mask87_2_2" style="mask-type:luminance" maskUnits="userSpaceOnUse" x="0" y="0" width="602" height="482">
<path fill-rule="evenodd" clip-rule="evenodd" d="M0 -2.31266e-05V482H602V-2.31266e-05H0Z" fill="white"/>
</mask>
<g mask="url(#mask87_2_2)">
<path d="M200.807 416.193C200.807 416.193 156.24 419.439 133.222 396.973C133.222 396.973 174.883 394.122 200.807 416.193Z" fill="#F49E9E"/>
</g>
<mask id="mask88_2_2" style="mask-type:luminance" maskUnits="userSpaceOnUse" x="0" y="0" width="602" height="482">
<path fill-rule="evenodd" clip-rule="evenodd" d="M0 -2.31266e-05V482H602V-2.31266e-05H0Z" fill="white"/>
</mask>
<g mask="url(#mask88_2_2)">
<path d="M200.807 416.193C200.807 416.193 163.052 411.438 140.899 376.878C140.899 376.878 189.963 384.687 200.807 416.193Z" fill="#F9BFBF"/>
</g>
<mask id="mask89_2_2" style="mask-type:luminance" maskUnits="userSpaceOnUse" x="0" y="0" width="602" height="482">
<path fill-rule="evenodd" clip-rule="evenodd" d="M0 -2.31266e-05V482H602V-2.31266e-05H0Z" fill="white"/>
</mask>
<g mask="url(#mask89_2_2)">
<path d="M200.807 416.193C200.807 416.193 166.869 400.352 156.091 361.102C156.091 361.102 188.798 380.515 200.807 416.193Z" fill="#F49E9E"/>
</g>
<mask id="mask90_2_2" style="mask-type:luminance" maskUnits="userSpaceOnUse" x="0" y="0" width="602" height="482">
<path fill-rule="evenodd" clip-rule="evenodd" d="M0 -2.31266e-05V482H602V-2.31266e-05H0Z" fill="white"/>
</mask>
<g mask="url(#mask90_2_2)">
<path d="M200.807 416.193C200.807 416.193 176.456 398.947 172.944 351.515C172.944 351.515 197.543 373.61 200.807 416.193Z" fill="#F9BFBF"/>
</g>
</g>
<defs>
<clipPath id="clip0_2_2">
<rect width="602" height="482" fill="white"/>
</clipPath>
</defs>
</svg>
